<svg id="Слой_1" data-name="Слой 1" xmlns="http://www.w3.org/2000/svg" viewBox="0 0 96.74 87.7"><defs><style>.cls-1{fill:none;stroke:#6e2b90;stroke-miterlimit:10;stroke-width:3px;}.cls-2{fill:#6e2b90;}</style></defs><title>book</title><path class="cls-1" d="M87.54,48.94c-.37-3.06.84-5.77,2.33-8.34a23,23,0,0,0,2.25-18.1,13.93,13.93,0,0,0-7.4-8.93c-5.89-3.06-11.89-3.73-17.89-.51-6.19,3.31-8.78,9.37-9.19,16.94a2.35,2.35,0,0,0,.08,1c1.18,2.69,0,4.94-1,7.21-.44,1-.92,1.94-1.4,2.91-.78,1.57-.45,2.44,1.06,2.76l1.4.31c-.9,2.58-.63,4.8,1.33,6.68,0-.05,0,.05,0,.13-1.11,4,.42,6.49,4,6.41a18,18,0,0,0,3.93-.69c1.66-.42,2.48-.09,3.36,1.58a9.81,9.81,0,0,1,.73,6.57h21c-.91-2.66-1.89-5.26-2.68-7.93A49.47,49.47,0,0,1,87.54,48.94Z" transform="translate(-2 -5.3)"/><path class="cls-2" d="M84.93,25.38V20.9c-1.4,0-2.79,0-4.17,0s-1.8-.61-1.68-2a2.57,2.57,0,0,0,0-.42c-.08-1.05.36-2.59-1.1-2.66-1.62-.07-1.28,1.59-1.25,2.68.06,1.89-.63,2.53-2.2,2.37-1.2-.12-2.43,0-3.93,0,0,1.63-.05,3.16,0,4.69s-.54,2.36-2,2.17a1.76,1.76,0,0,0-1.08,0A10.09,10.09,0,0,0,66.18,29a12.73,12.73,0,0,0,1.33,1.35c.21.17.6.08.9,0,1.74-.2,2.27.8,2.14,2.67-.1,1.39,0,2.79,0,4.46a35.21,35.21,0,0,0,3.71,0c1.83-.2,2.47.74,2.24,2.73a2,2,0,0,0,0,1c.3.51.69,1.14,1.14,1.27.27.08.89-.62,1.06-1.1.43-1.2-.63-3.11,1-3.69,1.06-.38,2.3-.07,3.46-.09.53,0,1.07-.06,1.68-.1,0-1.46,0-2.77,0-4.1-3.37-1.13-4.37-2.17-4.22-4.41S81.93,25.83,84.93,25.38Z" transform="translate(-2 -5.3)"/><path class="cls-2" d="M98.52,90.14q0-30.4,0-60.8c0-.77.21-1.91-.27-2.64a24.39,24.39,0,0,0-5.76-2.32c-.77-.27-.7-1.25-1,0s.4,1.27,1.15,1.42c1.55.31-1,.51,1.92,1.63a2.7,2.7,0,0,1,2,3c-.08,16.18,0,32.37,0,48.55v2.29A52.53,52.53,0,0,0,74.19,76.6a63.9,63.9,0,0,0-16.87,2.51C54,80,52.67,79,52.67,75.67q0-6.39,0-12.79,0-15.61,0-31.21c0-3.31.76-4.33,3.9-5.34a16.83,16.83,0,0,1,1.8-.43c.78-.2,1.75-.39,1.51-1.4-.29-1.17-1.27-.81-2.15-.6a26,26,0,0,0-5.86,1.9c-1.11.5-1.56.27-2.22-.69-5.83-8.58-14-14-23.72-17.21C21.81,6.56,17.5,6.18,13.29,5.3h-.43c-1.49.37-1.47,1.58-1.48,2.74,0,3.68,0,7.36,0,11,0,3.44,0,3.35-3.19,4.59C6,24.51,3.52,24.86,2,27Q2,59.19,2,91.4c0,1-.16,1.9,1.31,1.51,3-.62,5.94-1.12,8.91-1.65a91.46,91.46,0,0,1,24.16-.82c4.26.37,8.35,1.65,12.57,2.22a10.79,10.79,0,0,0,3-.15,95.1,95.1,0,0,1,25.79-2.43c6.37.26,12.58,1.59,18.8,2.84.69-.29,1.61.55,2.17-.43A4.41,4.41,0,0,1,98.52,90.14Zm-49.78,0a77.88,77.88,0,0,0-26.35-2.79A89.06,89.06,0,0,0,5.92,89.75c-.62.15-1.58,1.06-2,0-.5-1.23.31-1.89,1.5-2.34a52.27,52.27,0,0,1,12.36-3.08,69.15,69.15,0,0,1,29.69,3.21C48.89,88,49.3,88.65,48.74,90.11Zm.16-4.94c-.37,1-1.16.23-1.74.05-13.3-4-26.64-4.92-40.07-.61l-1.64.55L4,85.67c-.41-1.34-.22-2.18,1.17-2.77,14.31-6.07,28.56-5.29,42.81.21A1.44,1.44,0,0,1,48.9,85.17Zm-.44-6.61C41.11,68.32,30.78,63.18,18.65,61.25c-4.55-.73-4.57-.6-4.57-5.23q0-23.17,0-46.34c0-.85-.55-2.11,1.32-1.86,14,1.88,25.74,7.61,33.48,20,.56.53.34,1.22.34,1.84q0,23.82,0,47.64c0,.07,0,.14,0,.21C49.35,77.95,50,79.11,48.46,78.55ZM52.33,83c13.94-5.13,27.92-6.14,42-.48,1.36.55,2.82,1,2,3.16-15-5.69-30-4.79-45.14.08C50.9,84.39,51,83.52,52.33,83Zm44.13,6.68c-.18,1-.92.34-1.35.23a88.55,88.55,0,0,0-20.39-2.7,87.42,87.42,0,0,0-21.86,2.49c-.56.14-1.42.85-1.76-.15s.14-1.64,1.29-2c13.93-4.31,27.87-5.43,41.87-.35.54.2,1.08.39,1.62.61C96.82,88.2,96.57,89,96.46,89.69Z" transform="translate(-2 -5.3)"/><path class="cls-2" d="M31.62,50.21c0,5.19.13,4.84-4.75,3.07-3.53-1.28-4.64-3.22-4.07-6.64a14.89,14.89,0,0,0,0-2.38c0-2.82.22-3,2.78-2l1,.41C31.62,44.78,31.62,44.78,31.62,50.21Z" transform="translate(-2 -5.3)"/><path class="cls-2" d="M24.14,27.14a39.83,39.83,0,0,1,13,5.91A45.35,45.35,0,0,1,43,37.78c.59.56,1.57,1.2.6,2.12-.81.77-1.44-.05-2-.58a43.34,43.34,0,0,0-13.16-8.57c-1.46-.6-3-1-4.51-1.48-.65-.21-1.28-.51-1.08-1.34A1,1,0,0,1,24.14,27.14Z" transform="translate(-2 -5.3)"/><path class="cls-2" d="M24.69,34.95a37,37,0,0,1,10,4.24,44.87,44.87,0,0,1,8.1,6.09c.54.52,1.75,1,.94,2s-1.63.12-2.3-.49a43.18,43.18,0,0,0-12.6-8.23c-1.59-.66-3.26-1.11-4.9-1.66-.63-.22-1.3-.48-1.11-1.32S23.71,34.74,24.69,34.95Z" transform="translate(-2 -5.3)"/><path class="cls-2" d="M44.15,31.44a3.51,3.51,0,0,1-.6.85,1,1,0,0,1-1.39-.16c-.76-.66-1.46-1.4-2.22-2.06a35.42,35.42,0,0,0-8.44-5.61c-.76-.35-1.82-.74-1.16-1.87.56-1,1.4-.33,2.08,0a39.89,39.89,0,0,1,10.85,7.78C43.57,30.67,43.81,31,44.15,31.44Z" transform="translate(-2 -5.3)"/><path class="cls-2" d="M36,55.37a8.33,8.33,0,0,1,1,.48A35.81,35.81,0,0,1,43.33,61c.51.52,1.11,1.08.35,1.81s-1.33.19-1.85-.33a35.59,35.59,0,0,0-6.4-5.09c-.46-.28-1-.7-.67-1.4A1.14,1.14,0,0,1,36,55.37Z" transform="translate(-2 -5.3)"/><path class="cls-2" d="M36,47.69c.32.17.71.36,1.08.59a34.13,34.13,0,0,1,6.33,5.15c.44.45,1,.92.4,1.63a1.08,1.08,0,0,1-1.7,0,41,41,0,0,0-6.88-5.5c-.42-.27-.76-.72-.36-1.28A1.08,1.08,0,0,1,36,47.69Z" transform="translate(-2 -5.3)"/><path class="cls-2" d="M25.9,20.56c-.06.79-.48,1.26-1.09,1.19-.79-.09-1.83,0-2-1.2a.93.93,0,0,1,1-1.08C24.68,19.53,25.6,19.64,25.9,20.56Z" transform="translate(-2 -5.3)"/></svg>