<svg id="Слой_1" data-name="Слой 1" xmlns="http://www.w3.org/2000/svg" viewBox="0 0 82.7 84"><defs><style>.cls-1{fill:#6e2b90;}</style></defs><title>chelovechki</title><path class="cls-1" d="M31.31,92.5c-2.61-1.2-3.47-3.25-3.3-6.07a87.38,87.38,0,0,0,.09-11.14c-.33-4.72-1-9.43-1.69-14.12-.87-6-1.86-12.08-2.87-18.1a4.69,4.69,0,0,0-1.13-2.24C18.25,36.26,14,31.76,9.84,27.22a3.5,3.5,0,0,1-.55-4.62c1.36-1.94,3.85-2,5.64-.11,3.59,3.82,7.18,7.65,10.7,11.53.76.83,1.28.73,2.32.49A71.07,71.07,0,0,1,37.73,33c1-.09,1.5-.12,1.93-1.07q3.28-7.23,6.69-14.4c.9-1.89,2.4-2.68,4-2.25,2.36.61,3.3,2.84,2.17,5.33C50,26.14,47.41,31.67,44.9,37.24A5.39,5.39,0,0,0,44.45,40c.8,5.67,1.7,11.33,2.63,17a4.05,4.05,0,0,0,.88,1.7c1.48,1.89,3,3.77,4.55,5.6a5.88,5.88,0,0,1,1.5,4c0,4.37,0,8.75,0,13.12,0,3-1.72,4.93-4.28,5s-4.43-1.95-4.47-5c-.05-3.44-.07-6.89,0-10.33A4.44,4.44,0,0,0,44,67.74a25.05,25.05,0,0,1-2.58-3.18,2.25,2.25,0,0,0-3-1.05,16.89,16.89,0,0,1-2.6.52c.17,1.27.36,2.49.48,3.71.22,2.27.52,4.55.56,6.83.07,4-.15,8.09,0,12.13.08,2.8-.93,4.73-3.52,5.8Z" transform="translate(-8.65 -8.5)"/><path class="cls-1" d="M31.63,8.5l-.23,2.66a11.11,11.11,0,0,1,2.35-.26,10.21,10.21,0,0,1,2.22.7l-1.22,1.55-.3.4A29.56,29.56,0,0,1,37,15.62,8.43,8.43,0,1,1,23.2,17.79c.73-1.51,1.51-3,2.31-4.48A10.88,10.88,0,0,1,30.65,8.5Z" transform="translate(-8.65 -8.5)"/><path class="cls-1" d="M68.71,63.32a21.59,21.59,0,0,0-2.93-.6,1.91,1.91,0,0,0-1.33.64,46.36,46.36,0,0,0-3.09,3.82,3.34,3.34,0,0,0-.52,1.8c-.05,3.11,0,6.23,0,9.35,0,2.11-1.31,3.38-3.63,3.53,0-3.28,0-6.55,0-9.81,0-1.91-.11-3.82-.2-5.72a2,2,0,0,0-.31-1.09c-1.61-2-.68-3.57.91-5,2.42-2.13,2.06-5.15,2.59-7.87s.83-5.5,1.3-8.25A5.9,5.9,0,0,0,61,40.37c-2.07-4.27-4-8.59-6-12.91-1-2.19-.59-3.82,1.11-4.58s3.12,0,4.17,2.28c1.73,3.71,3.47,7.41,5.14,11.15.42.95,1,1.07,2,1.16a58.09,58.09,0,0,1,8,1.31,1.65,1.65,0,0,0,1.93-.51q4.44-4.82,8.91-9.61a2.81,2.81,0,0,1,3.56-.75A2.59,2.59,0,0,1,91.25,31a5.13,5.13,0,0,1-1.28,2c-3.28,3.59-6.63,7.11-9.89,10.72a5,5,0,0,0-1.19,2.4c-1.2,7.32-2.56,14.63-3.38,22-.52,4.7-.23,9.48-.26,14.23,0,2.75-1.23,4.38-3.46,4.47a3.41,3.41,0,0,1-3.73-3.47c0-6.37-.87-12.77.63-19.09A5.36,5.36,0,0,0,68.71,63.32Z" transform="translate(-8.65 -8.5)"/><path class="cls-1" d="M69.91,21.3l-1.39-1.46.11-.44h3.76c.1-.19.19-.28.18-.36-.08-.55-.18-1.1-.28-1.65a6.56,6.56,0,0,1,1.93.37c2.86,1.54,6,7.87,5.6,11.06a7,7,0,1,1-11.57-6.26C68.74,22.13,69.28,21.77,69.91,21.3Z" transform="translate(-8.65 -8.5)"/></svg>