<svg id="Слой_1" data-name="Слой 1" xmlns="http://www.w3.org/2000/svg" viewBox="0 0 87.43 91"><defs><style>.cls-1,.cls-2{fill:#6e2a90;}.cls-1,.cls-3{stroke:#6e2a90;stroke-miterlimit:10;stroke-width:4px;}.cls-3{fill:none;}</style></defs><title>doc_galka_right</title><line class="cls-1" x1="30.01" y1="15.91" x2="53.73" y2="15.91"/><line class="cls-1" x1="30.01" y1="30.91" x2="53.73" y2="30.91"/><line class="cls-1" x1="30.01" y1="45.92" x2="53.73" y2="45.92"/><line class="cls-1" x1="30.01" y1="60.93" x2="48.89" y2="60.93"/><rect class="cls-2" x="15.01" y="12.52" width="6.78" height="6.78" rx="3.26" ry="3.26"/><rect class="cls-2" x="15.01" y="27.53" width="6.78" height="6.78" rx="3.26" ry="3.26"/><rect class="cls-2" x="15.01" y="42.53" width="6.78" height="6.78" rx="3.26" ry="3.26"/><line class="cls-1" x1="30.01" y1="74.92" x2="53.73" y2="74.92"/><rect class="cls-2" x="15.01" y="71.53" width="6.78" height="6.78" rx="3.26" ry="3.26"/><rect class="cls-2" x="15.01" y="57.54" width="6.78" height="6.78" rx="3.26" ry="3.26"/><circle class="cls-3" cx="66.31" cy="63.89" r="17.43"/><path class="cls-2" d="M74.15,86.32a17.56,17.56,0,0,1-2.42-.17v5H12.68V9.84H71.73v41.8a17.2,17.2,0,0,1,4.84,0V5H7.84V96H76.57V86.15A17.56,17.56,0,0,1,74.15,86.32Z" transform="translate(-7.84 -5)"/><line class="cls-1" x1="55.66" y1="58.09" x2="66.8" y2="68.73"/><line class="cls-1" x1="86.16" y1="49.86" x2="63.89" y2="68.25"/></svg>