<svg id="Слой_1" data-name="Слой 1" xmlns="http://www.w3.org/2000/svg" viewBox="0 0 83.72 86.39"><defs><style>.cls-1{fill:#6e2b90;}</style></defs><title>girl</title><path class="cls-1" d="M10,58.53v-3c.08-.54.17-1.09.24-1.63a20.46,20.46,0,0,1,4.33-10,6.1,6.1,0,0,0,1.3-3.94c0-2.69,0-5.38.12-8.07a27.2,27.2,0,0,1,5-14.82A23,23,0,0,1,33.58,7.83c1.18-.34,2.4-.56,3.6-.83h5.34a1.36,1.36,0,0,0,.37.16,18.11,18.11,0,0,1,6.63,2c8.28,4.32,12.7,11.38,14,20.44a80.68,80.68,0,0,1,.34,10.32,6.38,6.38,0,0,0,1.31,4,20.56,20.56,0,0,1,4.5,11.86c.23,4.69-.87,8.81-4.67,11.91-.14.12-.28.25-.42.38a24.72,24.72,0,0,1,2.32,11.27c0,3.89,0,7.78,0,11.67a2.5,2.5,0,0,1-1.18,2.39H14A2.57,2.57,0,0,1,12.82,91c0-4.16,0-8.32,0-12.49,0-1.11.12-2.21.23-3.31a20.48,20.48,0,0,1,2-7.14c-.21-.19-.39-.37-.58-.52a11.6,11.6,0,0,1-3.83-5.62C10.39,60.81,10.24,59.66,10,58.53Zm7.82,5.87c.61-.48,1.16-.95,1.73-1.37,2.53-1.88,5.47-2.88,8.37-4,.78-.29,1.86-.37,2.24-.93s.13-1.65.19-2.5a1.21,1.21,0,0,0-.53-1.11,19.47,19.47,0,0,1-5.14-6.88,24.6,24.6,0,0,1-1.87-11.05,8.41,8.41,0,0,1,3.9-7.22c1.15-.76,2.37-1.42,3.6-2.07a6.82,6.82,0,0,0,3.89-5.61,1.91,1.91,0,0,1,2-1.73,2.1,2.1,0,0,1,1.94,1.29,18.93,18.93,0,0,0,4.41,5.59A25,25,0,0,0,55,32.18a2,2,0,0,1,1.92,2.18c0,1.67,0,3.34,0,5-.21,5.45-1.94,10.33-5.95,14.13a4.47,4.47,0,0,0-1.58,4.1c0,.44.11.69.58.84.9.27,1.77.62,2.66.95,3.21,1.18,6.38,2.41,9,4.77a.77.77,0,0,0,.75,0,12.89,12.89,0,0,0,2-2.18c1.62-2.55,1.61-5.33,1-8.19a16.34,16.34,0,0,0-3.18-6.62A10.89,10.89,0,0,1,59.85,40c.06-2.69,0-5.39-.16-8.07A22.88,22.88,0,0,0,55,19.39C50.88,14,45.44,11,38.47,11.5a17.73,17.73,0,0,0-10.85,4.66c-5.16,4.61-7.43,10.58-7.75,17.36-.12,2.52.08,5.06-.07,7.58a12.84,12.84,0,0,1-1,3.91A14.73,14.73,0,0,1,17,47.9a14.76,14.76,0,0,0-2.85,10.73A7.83,7.83,0,0,0,17.82,64.4ZM62.86,89a3.67,3.67,0,0,0,0-.44c-.1-4.47.35-8.95-.37-13.39A12.31,12.31,0,0,0,59,67.74c-2.75-2.53-6.29-3.49-9.61-4.72-.17.63-.15,1.33-.49,1.7a11.9,11.9,0,0,1-10.24,3.92A13.59,13.59,0,0,1,33.51,67c-1.48-.78-3.38-1.5-3-3.84,0,0-.05-.08-.22-.31C27.84,64,25.33,65,22.92,66.18a9.89,9.89,0,0,0-4.68,5.23,18,18,0,0,0-1.38,6.46c-.11,3.47-.06,6.95-.08,10.42,0,.24,0,.47.06.7h4.68c0-2.44,0-4.82,0-7.21a2,2,0,0,1,2-2.2c1.26,0,2,.8,2,2.22,0,2.11,0,4.22,0,6.34,0,.29,0,.58,0,.85H54.19c0-2.47,0-4.88,0-7.29a1.89,1.89,0,0,1,2-2.1,1.91,1.91,0,0,1,2,2.07c0,1.44,0,2.89,0,4.34,0,1,0,2,0,3h4.08C62.45,89,62.64,89,62.86,89Zm-26-61.85a11.72,11.72,0,0,1-4.49,4.18c-1.15.66-2.32,1.3-3.46,2a4,4,0,0,0-2,3.19,17.13,17.13,0,0,0,3.27,12c4.4,5.83,11.63,7.3,17.42,2.21C51.83,47,53.16,42,52.89,36.41a31.36,31.36,0,0,1-8.82-3.11A24.25,24.25,0,0,1,36.82,27.16ZM45.33,57.3a16.65,16.65,0,0,1-11,0c0,1.65,0,3.2,0,4.75a.74.74,0,0,0,.36.49c3.61,2.14,6.53,2.28,10.14.06a.94.94,0,0,0,.43-.62C45.35,60.48,45.33,59,45.33,57.3Z" transform="translate(-10 -7)"/><path class="cls-1" d="M93.72,23.51c-.14.5-.26,1-.41,1.5a10.83,10.83,0,0,1-3.15,5.2,3.73,3.73,0,0,0-1.3,3.17c.07,7.34,0,14.67,0,22q0,.47,0,.94l-.33.15L81,47.43l-7.53,9.08-.31-.15q0-.48,0-1,0-11,0-22a1.33,1.33,0,0,0-.62-1.22c-2.95-2.19-5.11-4.92-5.65-8.68-1.16-8,3.16-14.13,9.9-15.67C84.62,6,90.76,9.76,93.27,16.76c.18.51.3,1,.45,1.58Zm-23.4-2.32c.67,6.42,5.26,9.87,10.15,9.68,6.46-.26,10-5.17,9.72-10.19C89.88,14.14,84.85,10.77,80,11,73.51,11.36,70.46,16.39,70.32,21.18Zm6.29,12.91V47.43L81,41.9l4.47,5.52V33.57A18.55,18.55,0,0,1,76.61,34.09Z" transform="translate(-10 -7)"/></svg>