<svg id="Слой_1" data-name="Слой 1" xmlns="http://www.w3.org/2000/svg" viewBox="0 0 368.3 383.38"><defs><style>.cls-1{fill:#612f8c;}</style></defs><title>hand_up_ico</title><path class="cls-1" d="M825.5,308.67c6.3.08,11.19,2.76,13.31,8.32,2.73,7.16,6.88,10.92,14.91,11.1,6.22.14,10.72,4.1,12.6,10.15s.51,12-4.61,15.88c-6,4.58-7.2,9.75-5.22,16.81,1.64,5.84-.53,11.18-5.48,14.91s-10.74,4.67-15.78,1.26c-6.78-4.59-12.54-4.45-19.29,0-5.08,3.34-10.88,2.52-15.78-1.25s-7.19-9.12-5.4-15.24c2-6.87.7-12-5.24-16.42-5.18-3.86-6.5-9.7-4.68-15.86s6.56-10.21,12.87-10.29c7.84-.09,11.77-3.75,14.41-10.65C814.36,311.53,819.3,308.66,825.5,308.67Zm-16.82,66c3.08-1.57,5.48-2.42,7.45-3.86,6.35-4.65,12.48-4.71,18.86,0,2,1.46,4.47,2.29,7.41,3.75-.74-4.67-1-8.54-2-12.22-1.21-4.6.15-8,3.58-11,2.93-2.57,5.6-5.44,9-8.74-4.31-.67-7.6-1.44-10.93-1.63-5.37-.32-9.2-2.32-11.19-7.66-1.26-3.38-3.2-6.51-5.23-10.53-2.09,4.16-4,7.25-5.24,10.59-1.94,5.16-5.63,7.2-10.85,7.59-3.49.26-6.93,1-10.7,1.63,3.21,3.35,5.8,6.39,8.76,9,3.39,3,4.21,6.48,3.24,10.78C809.91,366.07,809.46,369.89,808.68,374.63Z" transform="translate(-498.83 -193.87)"/><path class="cls-1" d="M540.29,308.68c6.08,0,11.11,2.5,13.24,8.05,2.85,7.46,7.24,11.26,15.5,11.48,6.1.16,10.39,4.19,12.14,10.13s.67,11.85-4.42,15.59c-6.44,4.73-7.35,10.23-5.34,17.44,1.53,5.48-.64,10.41-5,14s-10.21,5.37-15,2.25c-7.77-5.07-14.09-4.28-22.11-.08-10.23,5.36-22.39-4.48-19.84-15.91,1.77-8,.38-13.35-6-18.37-4.68-3.7-5.65-9.38-3.83-15.06,1.76-5.53,5.66-9.63,11.52-9.88,8.49-.36,13.4-4,16.37-12C529.51,311.13,534.5,308.68,540.29,308.68Zm-16.73,66c3.67-1.91,6.69-3.13,9.31-4.93,5.19-3.56,10.08-3.43,15.24,0,2.64,1.77,5.62,3,9.25,4.94-.85-4.94-1.46-9-2.25-13s0-7.08,3-9.79,6.07-5.79,9.83-9.4c-4.85-.7-8.61-1.37-12.39-1.75-4.48-.45-7.71-2.29-9.5-6.65-1.49-3.63-3.43-7.07-5.61-11.49-2.11,4.21-4,7.39-5.34,10.8-1.92,5-5.47,7-10.57,7.44-3.54.27-7,1-11.66,1.7,3.84,3.68,6.91,6.74,10.11,9.65a8.91,8.91,0,0,1,2.8,9.13C525,365.48,524.4,369.64,523.56,374.68Z" transform="translate(-498.83 -193.87)"/><path class="cls-1" d="M586.91,450.45c5.35,0,10.61.23,11.13,7.1.34,4.44-2,6-11.14,7.9-.19,1.64-.3,3.36-.61,5.05a7.07,7.07,0,0,1-7.36,6.06c-3.61-.19-6.87-3-6.68-6.74.2-4-1.28-5.07-5-5.1-4.14,0-6.65-3.09-6.62-7.06a6.77,6.77,0,0,1,7.12-7c2.88,0,4.67-.24,4.49-3.94-.21-4.56,2.77-7.6,6.8-7.77s7,2.63,7.5,7.21C586.67,447.5,586.76,448.83,586.91,450.45Z" transform="translate(-498.83 -193.87)"/><path class="cls-1" d="M779.08,450.25c.21-1.87.31-3.6.62-5.3a7,7,0,0,1,7.4-6c3.68.23,6.81,3,6.65,6.75-.17,3.94,1.11,5.18,5,5s6.47,2.95,6.61,6.69a6.82,6.82,0,0,1-6.35,7.37c-1.58.2-3.18.31-5.19.5,0,1.72.11,3.2,0,4.66a7.17,7.17,0,0,1-6.89,6.62,7.08,7.08,0,0,1-7.19-5.82,8.74,8.74,0,0,1-.32-2.59c.23-2.44-.8-3.19-3.2-3.3-5.62-.25-8.49-3-8.31-7.43.17-4.26,3.11-6.6,8.54-6.85C777.3,450.54,778.14,450.37,779.08,450.25Z" transform="translate(-498.83 -193.87)"/><path class="cls-1" d="M773.35,515.29c-6.28-2.06-13.16-2.65-19.82-3.15-6.93-.52-13.93-.12-21.23-.12-.1-1.89-.24-3.36-.25-4.82-.05-4.62.1-9.26-.13-13.87,0-.32-.05-.63-.1-.93.2-11.43.2-69.12.2-70.71,0-31.62.08-63.24-.08-94.87a12.15,12.15,0,0,1,4-9.46q34.83-34.9,69.4-70.06c7.9-8,10.71-17.64,7.59-28.56-6-20.84-31.37-27.56-47.54-12.56-9.89,9.18-19.55,18.61-29.32,27.93-1.51,1.44-3.05,2.86-4.94,4.63-4.65-27.58-19.94-44.77-47.92-44.87C655,193.77,639.64,211,634.9,238.6c-1.3-1.15-2.34-2-3.32-2.95-10.23-9.74-20.39-19.55-30.67-29.23-9.78-9.19-22.78-11-33.86-5-17.22,9.36-20.24,31.8-6.08,46.18q34.6,35.13,69.4,70.06a11.39,11.39,0,0,1,3.67,8.82q-.15,89.8-.07,179.61c0,1-.08,2,0,3,.16,2.31-.92,3-3.13,3-7-.08-14-.11-21,0-28,.53-52.1,22.15-55.53,49.9-.7,5.67-2.05,11.93,4.94,15.28h247.5c4.42-2.3,5.62-5.92,5.34-10.8C810.78,543.23,795.64,522.61,773.35,515.29Zm-55.69-7.19c.16,3.22-1.08,4.07-4.1,4-6.24-.19-12.51-.27-18.74,0-3.63.17-4.6-1-4.59-4.57.14-31,.08-62,.08-93V410c8.77,0,17.1-.07,25.43.13.64,0,1.72,1.87,1.77,2.91.21,4.25,0,72.42.15,80,0,.24,0,.48,0,.73C717.56,498.6,717.43,503.36,717.67,508.1ZM788.5,212.88a13.5,13.5,0,0,1,10.74,10.78,13.92,13.92,0,0,1-5.93,14.89l-20.7-18.8C776.91,214.18,782,211.44,788.5,212.88Zm-105.28-4.8A33.14,33.14,0,1,1,649.85,241,33.14,33.14,0,0,1,683.22,208.08ZM566.76,223.86a13.24,13.24,0,0,1,10.54-10.94c6.55-1.54,11.64,1.2,16.08,6.75l-21.09,18.75A14.11,14.11,0,0,1,566.76,223.86ZM587,253.36a16.45,16.45,0,0,0-3.59-2.12l.52-1.95,20.83-19c.25.22,1.28,1.07,2.23,2,9.41,9,18.88,17.87,28.18,27a119.68,119.68,0,0,1,10.28,11.34,47.82,47.82,0,0,0,75.17-.15,106.12,106.12,0,0,1,9.49-10.54c9.57-9.33,19.31-18.51,29-27.73.89-.85,1.83-1.63,2-1.77l21.18,19.34c-1.38,1.5-2.26,2.51-3.2,3.46-19,19.2-37.91,38.45-57,57.52A14.43,14.43,0,0,0,717.52,322c.19,23.12,0,46.24.16,69.36,0,3.42-.92,4.49-4.4,4.46q-30.37-.22-60.74,0c-3.32,0-4.23-1-4.21-4.27.13-23.37,0-46.74.15-70.11a13.67,13.67,0,0,0-4.42-10.56C625,291.76,606,272.51,587,253.36Zm61.3,161.2c0-3.56.89-4.79,4.57-4.66,7.44.27,14.9.08,22.57.08V512c-6.64,0-13.09,0-19.55,0-8.81-.08-7.48,1.14-7.5-7.54C648.36,474.5,648.45,444.53,648.32,414.56Zm-79,147.61c1.39-15.48,15.65-30.86,32.06-34.46A59.92,59.92,0,0,1,614,526.34q69-.14,138,0c21.49,0,38.2,12,43.93,31.25.42,1.41.68,2.87,1.08,4.62Z" transform="translate(-498.83 -193.87)"/><path class="cls-1" d="M668.7,239.68a7.09,7.09,0,1,1,7.33-6.95A7.21,7.21,0,0,1,668.7,239.68Z" transform="translate(-498.83 -193.87)"/><path class="cls-1" d="M697.07,225.52a7.08,7.08,0,1,1-7.1,7.16A7.15,7.15,0,0,1,697.07,225.52Z" transform="translate(-498.83 -193.87)"/></svg>