<svg id="Слой_1" data-name="Слой 1" xmlns="http://www.w3.org/2000/svg" viewBox="0 0 383.82 383.76"><defs><style>.cls-1{fill:#612f8c;}</style></defs><title>human_arrow_ico</title><path class="cls-1" d="M533.5,577c-4.07-1.92-5.13-5.31-5-9.53.17-4.74.2-9.5-.08-14.23a4.52,4.52,0,0,0-2.4-3.33c-17.26-5.53-24.54-20.46-22.91-38.25,1.12-12.26,6.64-21.75,17.91-26.92a39.63,39.63,0,0,1,15.12-3.4c16.1-.42,32.21-.24,48.32-.13s28.76,9.09,32.06,24.46c3.15,14.65,1.66,28.7-11.46,38.94-6.18,4.82-13.38,6.47-21,6.61-6,.11-12-.16-18,.13a9.21,9.21,0,0,0-5.47,2.28c-6.69,6.37-13.13,13-19.69,19.51-1.39,1.38-3,2.58-4.43,3.87Zm7.38-22.54,1.17.52c4.26-4.36,8.33-8.94,12.89-13a12.65,12.65,0,0,1,7.23-3c7.85-.38,15.73,0,23.6-.18C596,538.68,603.65,532.07,605,522a43.66,43.66,0,0,0,0-11.9,18.74,18.74,0,0,0-18.8-16.47q-25.85-.19-51.71,0c-7,.05-12.39,3.35-16.19,9.22-2.94,4.54-3,9.63-3,14.8.12,12.29,6.9,19.9,19.07,21.23,4.43.49,6.38,2.58,6.48,7.1C540.93,548.8,540.88,551.63,540.88,554.46Z" transform="translate(-490.18 -193.24)"/><path class="cls-1" d="M874,248.5c-1.25,4.67-2.14,9.48-3.81,14C862.2,284,840.63,297,817,294.81c-21.74-2.05-40.45-19.68-44.22-41.66C768,225.33,786.15,199,813.61,194.06a51.16,51.16,0,0,1,59.25,40.74c.36,1.82.76,3.63,1.14,5.44Zm-12.59-4.28a38.8,38.8,0,0,0-38.59-38.63c-21.08,0-38.74,17.58-38.75,38.58s17.71,38.69,38.7,38.76S861.41,265.26,861.41,244.22Z" transform="translate(-490.18 -193.24)"/><path class="cls-1" d="M874,398.5c-1.53,4.34-4.74,5.45-9.09,5.4-14.61-.17-29.22-.06-43.83-.06h-5c0,4.24-.07,8.06,0,11.86.07,2.85-.72,5.15-3.32,6.61s-5.06.61-7.31-1c-14.33-10.22-28.67-20.41-42.94-30.71-4.62-3.33-4.69-7.79-.11-11.12q21.5-15.63,43.21-31c5-3.55,10-.85,10.37,5.44.12,2,0,4,0,6s0,3.72,0,6c1.87.1,3.45.25,5,.25,14.61,0,29.22.12,43.83-.05,4.35-.05,7.56,1.06,9.09,5.4Zm-12.77-20.27h-4.78q-22.31,0-44.62,0c-6,0-8.1-2.09-8.16-8,0-1.42,0-2.84,0-5.18l-27.91,20,27.65,19.74c.13-1.75.24-2.7.26-3.66.1-7.8,1.63-9.31,9.52-9.31q21.75,0,43.49,0c1.46,0,2.91-.13,4.55-.21Z" transform="translate(-490.18 -193.24)"/><path class="cls-1" d="M825.25,577c-2-.5-4.06-1.06-6.11-1.49-18.13-3.78-36-21.57-34.32-47.2,1.28-19.8,17.8-37.39,38.61-40.29,23.63-3.3,46.35,13.8,49.72,37.41a19,19,0,0,0,.85,2.82v7.5a21.9,21.9,0,0,0-.82,2.83c-2.84,18.53-15.66,32.5-33.94,36.92-2.16.52-4.33,1-6.49,1.5Zm36.16-44.81a32.21,32.21,0,1,0-32.22,32.22A32.42,32.42,0,0,0,861.41,532.19Z" transform="translate(-490.18 -193.24)"/><path class="cls-1" d="M874,301.75H861.64V289H874Z" transform="translate(-490.18 -193.24)"/><path class="cls-1" d="M874,455.5H861.61V442.75H874Z" transform="translate(-490.18 -193.24)"/><path class="cls-1" d="M874,481H861.64V468.25H874Z" transform="translate(-490.18 -193.24)"/><path class="cls-1" d="M874,327.25H861.74V314.5H874Z" transform="translate(-490.18 -193.24)"/><path class="cls-1" d="M874,352.75H861.46c0-3.72-.12-7.17.11-10.59,0-.6,1.51-1.53,2.35-1.56,3.36-.11,6.72.07,10.09.15Z" transform="translate(-490.18 -193.24)"/><path class="cls-1" d="M874,429.25c-3.36.08-6.74.32-10.08.12a3.4,3.4,0,0,1-2.37-2.28c-.29-3.07-.11-6.17-.11-9.84H874Z" transform="translate(-490.18 -193.24)"/><path class="cls-1" d="M711.34,320.86c5.73,2.79,11.65,4.91,16.72,8.32,10.93,7.34,17,18.1,17.37,31.19.55,20.86.23,41.74.19,62.61,0,4.07-2.07,6.18-6.26,6.4-4.61.24-9.24.11-13.87.13h-5.38c0,1.89,0,3.33,0,4.77q0,38.06,0,76.12c0,6.81-1.89,8.71-8.64,8.71q-29.62,0-59.24,0c-6.29,0-8.32-2-8.32-8.28q0-38.06,0-76.12c0-1.49,0-3,0-5.2H630.32c-11.5,0-12-.49-12-12.1,0-17.37.33-34.75-.08-52.12-.49-20.42,12.52-38.26,32.12-42.8a23.27,23.27,0,0,0,2.55-.92c-5.37-16.11-2.51-30,11.81-39.74,11.25-7.62,23.65-7.55,34.82.17C713.62,291.74,716.4,305.58,711.34,320.86Zm-67.44,32.48c2.9,0,5.27.2,7.6,0,3.69-.39,4.86.77,4.85,4.71-.15,47.86-.1,95.73-.1,143.59v5.16c5.31,0,10.16-.25,15,.08,3.76.25,4.88-.86,4.85-4.73-.17-26.62-.1-53.24-.08-79.86,0-1.56.16-3.13.23-4.6H688v4.77q0,30.74,0,61.49c0,6.5-.09,13,.09,19.49,0,1.13,1.15,3.16,1.84,3.19,5.81.26,11.64.15,17.81.15v-5.3q0-71.42,0-142.84a15,15,0,0,1,.09-3.36c.16-.67.92-1.69,1.45-1.71,3.54-.15,7.09-.08,10.8-.08,0,8.35,0,16,0,23.58,0,12.25,0,24.49,0,36.74,0,1.5-.58,3.52,2,3.54,3.59,0,7.18,0,10.85,0a22,22,0,0,0,.44-3c-.08-18,.06-36-.37-54-.26-11.28-8.63-21.84-19.45-25-4.24-1.23-8.81-1.44-13.25-1.84-3.15-.29-6-.74-7.29-4.12-1.2-3.08.43-5.27,2.32-7.38.33-.37.7-.72,1-1.09a19.17,19.17,0,0,0,1.46-23.86,19.42,19.42,0,0,0-23.28-6.83c-8.3,3.41-13.54,12.14-11.53,20.79.91,3.92,3.46,7.54,5.65,11.06,1.48,2.38,3.32,4.39,2.07,7.47s-4,3.81-7,3.92c-2.5.09-5,.2-7.48.38-12.61.92-25,12.9-25.36,25.54-.52,18.48-.32,37-.4,55.47a12.75,12.75,0,0,0,.54,2.45c3.05,0,6-.17,9,0s3.87-.78,3.84-3.79c-.13-17-.06-34-.06-51C643.89,359.76,643.89,356.9,643.89,353.34Z" transform="translate(-490.18 -193.24)"/><path class="cls-1" d="M566.69,307.84c-32.32-.37-57.44-25.92-57.16-57.88.26-29.46,23.35-56.39,57.35-56.66C599,193,624.49,219.62,624.09,252,623.71,282.78,597.56,308.19,566.69,307.84Zm-44.9-57.35c-.45,24.21,19.92,44.9,44.54,45.24a45.08,45.08,0,0,0,45.41-44.28c.46-24.67-19.16-45.43-43.32-45.85C542.5,205.14,522.26,224.64,521.78,250.49Z" transform="translate(-490.18 -193.24)"/><path class="cls-1" d="M547.95,404.08c-1.86-.09-3.33-.23-4.79-.23-14.74,0-29.48,0-44.22,0-6.75,0-8.73-2-8.75-8.63s0-13.49,0-20.24,1.93-8.77,8.59-8.78c15,0,30-.09,45,.05,3.18,0,4.59-.72,4.23-4.15a61.86,61.86,0,0,1-.06-8.61c.19-5.54,5-8.27,9.69-5.3,4.42,2.81,8.58,6,12.85,9.06q15.09,10.77,30.17,21.56,8.64,6.22-.06,12.48-20.67,14.89-41.39,29.7c-2.33,1.67-4.68,2.93-7.6,1.45s-3.63-4.22-3.64-7.24C547.94,411.58,547.95,408,547.95,404.08Zm12.38.93,27.92-20-27.76-19.8c-.09,1.85-.15,2.71-.16,3.58-.08,7.94-1.57,9.45-9.37,9.45H512c-9.44,0-9.3,0-9.47,9.37-.06,3.27.82,4.28,4.16,4.25,15.5-.17,31-.1,46.49,0,4.83,0,7,2.3,7.17,7.13C560.37,400.62,560.33,402.31,560.33,405Z" transform="translate(-490.18 -193.24)"/><path class="cls-1" d="M490.28,301.25V289.49h12v11.76Z" transform="translate(-490.18 -193.24)"/><path class="cls-1" d="M490.42,315h11.92v11.86H490.42Z" transform="translate(-490.18 -193.24)"/><path class="cls-1" d="M490.38,443.1h12V455h-12Z" transform="translate(-490.18 -193.24)"/><path class="cls-1" d="M490.41,468.61h11.88v11.95H490.41Z" transform="translate(-490.18 -193.24)"/><path class="cls-1" d="M490.33,429.44V417.66h12.22c0,3.31.1,6.63-.08,9.94a2.56,2.56,0,0,1-1.76,1.76C497.38,429.54,494,429.44,490.33,429.44Z" transform="translate(-490.18 -193.24)"/><path class="cls-1" d="M490.35,352.38V340.57c3.57,0,7-.12,10.42.1.64,0,1.67,1.37,1.72,2.16.2,3.08.08,6.18.08,9.55Z" transform="translate(-490.18 -193.24)"/><path class="cls-1" d="M566.21,506.78v12.08H528.6c0-3.42-.09-6.87.09-10.31a2.57,2.57,0,0,1,1.85-1.69C542.35,506.75,554.17,506.78,566.21,506.78Z" transform="translate(-490.18 -193.24)"/><path class="cls-1" d="M580.16,518.78V507h11.52v11.73Z" transform="translate(-490.18 -193.24)"/><path class="cls-1" d="M843.09,258.77c-9.28,14.07-31.59,14.11-40.49-.06l8.69-7.22c9.54,7.61,13.42,7.61,23,0Z" transform="translate(-490.18 -193.24)"/><path class="cls-1" d="M835.9,225.5h12.3c0,3.49.93,7.19-.22,10.05-1.66,4.09-6.07,1.35-9.23,1.8-.83.12-2.62-1.37-2.72-2.27A87.84,87.84,0,0,1,835.9,225.5Z" transform="translate(-490.18 -193.24)"/><path class="cls-1" d="M797.8,225.35h9.34c.37,0,1.06,0,1.07.08a73.57,73.57,0,0,1,1.27,9.41c0,.85-1.6,2.42-2.6,2.53-9.29,1.07-9.49.83-9.33-8.59C797.58,227.81,797.7,226.84,797.8,225.35Z" transform="translate(-490.18 -193.24)"/><path class="cls-1" d="M835.43,538.43c0,3.74-.07,6.85,0,10,.07,2.06-.65,3-2.81,2.88-3-.12-6,0-9.38,0V538.58h-12.7V526.11c3.11,0,6.08-.17,9,0s3.75-1,3.56-3.68,0-5.7,0-8.85h12.33c0,1.93,0,3.87,0,5.82,0,6.66,0,6.66,6.82,6.66h6c0,3.74.14,7.09-.12,10.4-.06.7-1.56,1.77-2.46,1.83C842.44,538.57,839.2,538.43,835.43,538.43Z" transform="translate(-490.18 -193.24)"/><path class="cls-1" d="M557.41,224.4c2.1.69,5.79,2.78,9.56,2.91s7.32-2.44,11-2.62c8.56-.43,14.91,3.71,18.53,11.41s2.52,15.29-3.29,21.52c-7,7.47-14.41,14.53-21.79,21.63-3.09,3-6.24,3-9.32,0-7.38-7.09-14.81-14.15-21.8-21.62-5.82-6.22-6.95-13.77-3.35-21.53S547,224.7,557.41,224.4Zm9.44,43.13c6.23-6.47,11.73-12.09,17.11-17.81a7.11,7.11,0,0,0,1.53-8.3c-1.38-3-3.94-4.8-7.11-4.54a13.31,13.31,0,0,0-6.33,2.68c-4.28,3.15-6.33,3.27-10.56-.15a18.7,18.7,0,0,0-1.8-1.34,8.19,8.19,0,0,0-10.26,1.24,7.43,7.43,0,0,0,.08,10.21C554.94,255.38,560.57,261,566.85,267.53Z" transform="translate(-490.18 -193.24)"/></svg>