<svg id="Слой_1" data-name="Слой 1" xmlns="http://www.w3.org/2000/svg" viewBox="0 0 380.89 380.89"><defs><style>.cls-1{fill:#fff;stroke:#fff;stroke-miterlimit:10;}</style></defs><title>location_ico</title><path class="cls-1" d="M682.84,194.33c-104.74,0-189.94,85.21-189.94,189.94S578.1,574.22,682.84,574.22,872.78,489,872.78,384.27,787.57,194.33,682.84,194.33Zm0,357.89c-92.6,0-167.94-75.34-167.94-167.94s75.34-167.94,167.94-167.94,167.94,75.34,167.94,167.94S775.44,552.22,682.84,552.22Z" transform="translate(-492.39 -193.83)"/><path class="cls-1" d="M752.94,296.51c-18.62-20.78-42-31.2-71.5-31.85h-.12l-3,.25c-2.75.22-5.86.47-9,.92a91.81,91.81,0,0,0-42.19,17.5,97.8,97.8,0,0,0-38,94.28c2.77,16.18,8.89,32.67,19.27,51.89,16.05,29.72,37.1,58.2,66.22,89.62,2.79,3,5.48,4.47,8.23,4.48h0c2.74,0,5.43-1.45,8.21-4.43A505,505,0,0,0,735.27,465c13.81-19.64,24.17-37.8,31.69-55.54,7.06-16.66,10.42-30,10.89-43.12C778.8,339.53,770.42,316,752.94,296.51Zm4.68,51.6c2.7,14,1.12,28.75-4.81,45.14-8.52,23.52-21.65,46.15-42.6,73.38-6.1,7.93-12.32,15.53-18.92,23.58q-4.08,5-8.22,10.07l-4.7-5.5c-3.8-4.44-7.39-8.63-10.9-12.92-20.69-25.23-35.33-47.06-46.07-68.7-7.44-15-11.77-27.69-13.64-40a76.63,76.63,0,0,1,8.46-48.52c9.33-17.48,23.22-29.66,41.29-36.19a76,76,0,0,1,26-4.76,71.71,71.71,0,0,1,35.83,9.87C740,305.36,752.92,323.71,757.62,348.11Z" transform="translate(-492.39 -193.83)"/><path class="cls-1" d="M713.88,329.06a43.49,43.49,0,0,0-31-13h0a43.89,43.89,0,0,0-43.78,43.62,44,44,0,0,0,43.76,44h0A43.89,43.89,0,0,0,726.67,360,43.41,43.41,0,0,0,713.88,329.06Zm-6.35,31a24.73,24.73,0,0,1-7.61,17.54,24.16,24.16,0,0,1-17.25,7,24.86,24.86,0,0,1-24.46-24.67,24.92,24.92,0,0,1,24.59-24.65h.15a24.61,24.61,0,0,1,17.48,7.49A24.21,24.21,0,0,1,707.53,360Z" transform="translate(-492.39 -193.83)"/></svg>