<svg id="Layer_2" data-name="Layer 2" xmlns="http://www.w3.org/2000/svg" xmlns:xlink="http://www.w3.org/1999/xlink" viewBox="0 0 148.52 85.68"><defs><style>.cls-1{fill:#d4de4e;}.cls-2{fill:#d7569c;}.cls-3{fill:url(#radial-gradient);}.cls-4{fill:#99c45a;}.cls-5{fill:#e18c44;}.cls-6{fill:#d24a43;}.cls-7{fill:#fbdb4a;}.cls-8{fill:#fff343;}.cls-9{fill:#3eb5f1;}</style><radialGradient id="radial-gradient" cx="77.3" cy="793.64" r="120.68" gradientTransform="translate(81.87 -559.69) rotate(9.04) scale(0.96)" gradientUnits="userSpaceOnUse"><stop offset="0" stop-color="#f6ed54"/><stop offset="0.12" stop-color="#ede952"/><stop offset="0.43" stop-color="#dbe14f"/><stop offset="0.65" stop-color="#d4de4e"/><stop offset="0.97" stop-color="#99c45a"/></radialGradient></defs><title>Logo DAR</title><path class="cls-1" d="M96.15,81a.92.92,0,0,0,.52.12h1.47a.91.91,0,0,0,.47-.12.85.85,0,0,0,.32-.63.25.25,0,0,0,0,0v-.43l0-.07h7.25v.5a.3.3,0,0,0,0,.05.93.93,0,0,0,.26.57.84.84,0,0,0,.58.17h1.49a1,1,0,0,0,.47-.11.8.8,0,0,0,.32-.66V77.74a1.31,1.31,0,0,0-.08-.5.65.65,0,0,0-.61-.36h-.49V65.47a.88.88,0,0,0-.21-.67.84.84,0,0,0-.58-.18H99.87a1,1,0,0,0-.58.16.89.89,0,0,0-.31.64v0q0,1-.11,2.15c0,.78-.08,1.52-.13,2.22s-.09,1.34-.14,1.9-.08.95-.12,1.19c-.06.57-.13,1.09-.2,1.55A7.13,7.13,0,0,1,98,75.68a2.7,2.7,0,0,1-.42.81,1.17,1.17,0,0,1-.53.38L96.8,77l-.13,0-.1,0a1.13,1.13,0,0,0-.54.41,1.33,1.33,0,0,0-.16.72v2.34A.71.71,0,0,0,96.15,81Zm4.74-4.2a4.8,4.8,0,0,0,.25-.67,10.34,10.34,0,0,0,.26-1.12c.06-.38.11-.76.15-1.13s.06-.68.09-1,0-.62.08-1.09.07-1,.11-1.53.06-1.05.09-1.55.05-.85.07-1.13h2.85v9.21Z" transform="translate(-36.85 -51.61)"/><path class="cls-1" d="M113.05,79.88h8a.67.67,0,0,0,.7-.75V77.57a.66.66,0,0,0-.7-.72h-5.46a.28.28,0,0,1,0,0V73.55s0,0,0,0H120a.66.66,0,0,0,.7-.72V71.27a.67.67,0,0,0-.7-.74h-4.41a.27.27,0,0,1,0-.08V67.62H121a.67.67,0,0,0,.7-.75V65.33a.64.64,0,0,0-.25-.56.8.8,0,0,0-.47-.14h-7.88a.68.68,0,0,0-.75.72v13.8A.68.68,0,0,0,113.05,79.88Z" transform="translate(-36.85 -51.61)"/><path class="cls-1" d="M133.83,67.34a.91.91,0,0,0,.12-.47V65.33a.64.64,0,0,0-.67-.7h-8.85a.67.67,0,0,0-.72.72v1.51a.68.68,0,0,0,.72.75h2.69l0,11.58a.66.66,0,0,0,.75.67h1.82a.67.67,0,0,0,.75-.7l0-11.56h2.85A.6.6,0,0,0,133.83,67.34Z" transform="translate(-36.85 -51.61)"/><path class="cls-1" d="M137.42,78.8a4.67,4.67,0,0,0,1.58.9,6.12,6.12,0,0,0,2,.31,6.3,6.3,0,0,0,2.63-.55,5.08,5.08,0,0,0,2.12-1.91.68.68,0,0,0,.06-.59.79.79,0,0,0-.35-.4L144,75.69a.59.59,0,0,0-.76,0L143,76l0,0a3.23,3.23,0,0,1-.88.72A2.15,2.15,0,0,1,141,77a1.71,1.71,0,0,1-1.29-.44,1.46,1.46,0,0,1-.43-1.07V69a1.67,1.67,0,0,1,.43-1.15A1.58,1.58,0,0,1,141,67.4a2.25,2.25,0,0,1,2,1,.85.85,0,0,0,.42.36.71.71,0,0,0,.66-.07l0,0,1.26-1a.73.73,0,0,0,.37-.55.74.74,0,0,0-.17-.52,4.89,4.89,0,0,0-2.16-1.82,6.79,6.79,0,0,0-2.47-.46,5.63,5.63,0,0,0-1.94.33,4.85,4.85,0,0,0-1.56.91,4.1,4.1,0,0,0-1,1.44,4.58,4.58,0,0,0-.37,1.86v6.56a4.64,4.64,0,0,0,.37,1.88A4.08,4.08,0,0,0,137.42,78.8Z" transform="translate(-36.85 -51.61)"/><path class="cls-1" d="M159.33,64.95a.57.57,0,0,0-.56-.32h-2.11a1.37,1.37,0,0,0-.5.07,1,1,0,0,0-.39.31L152,69.75V65.31a.63.63,0,0,0-.67-.67h-1.92a.66.66,0,0,0-.72.7V79.21a.62.62,0,0,0,.65.67h2a.63.63,0,0,0,.65-.7L152,75a2,2,0,0,1,.51-1.39,1.82,1.82,0,0,1,1.42-.54,2.1,2.1,0,0,1,.88.16,1.33,1.33,0,0,1,.52.41,1.81,1.81,0,0,1,.29.6,3.5,3.5,0,0,1,.12.71l.28,4.29a.66.66,0,0,0,.7.65h1.89a.63.63,0,0,0,.65-.7v0l-.31-4.42a4.78,4.78,0,0,0-.79-2.8,3.51,3.51,0,0,0-2.42-1.41,1.81,1.81,0,0,0-.43-.05h0l3.95-4.92A.6.6,0,0,0,159.33,64.95Z" transform="translate(-36.85 -51.61)"/><path class="cls-1" d="M169.24,65.2a.6.6,0,0,0-.39-.52,1.36,1.36,0,0,0-.38,0h-2.7a.79.79,0,0,0-.8.54v0L161.51,79a.83.83,0,0,0,0,.53c.09.22.32.34.69.34H164a.88.88,0,0,0,.43-.11.69.69,0,0,0,.33-.43c0-.12.08-.29.12-.52l.15-.7.15-.69c0-.2.08-.36.11-.48l0-.09h3.47l0,.08.54,2.37v0a.75.75,0,0,0,.78.53h1.92c.54,0,.66-.31.68-.45a.87.87,0,0,0,0-.46ZM168.16,74h-2.08l.7-3.22.32-1.56.34,1.61Z" transform="translate(-36.85 -51.61)"/><path class="cls-1" d="M184.63,64.63h-4.76a5.55,5.55,0,0,0-1.86.3,4.15,4.15,0,0,0-2.51,2.37,4.93,4.93,0,0,0-.36,1.91,5.42,5.42,0,0,0,.57,2.49,6.62,6.62,0,0,0,1.41,1.87h0l-2.51,5.32a.74.74,0,0,0-.08.57.49.49,0,0,0,.25.28,1,1,0,0,0,.45.13h1.71a1.1,1.1,0,0,0,.84-.25,2.16,2.16,0,0,0,.29-.41v0l2.24-4.89,0-.06H182v4.94a.68.68,0,0,0,.77.7h1.82a.67.67,0,0,0,.75-.7V65.36A.68.68,0,0,0,184.63,64.63Zm-2.57,3v3.6h-2.4a.66.66,0,0,1-.35-.08,1.69,1.69,0,0,1-.63-.88,3.39,3.39,0,0,1-.19-1,1.7,1.7,0,0,1,.47-1.23,1.64,1.64,0,0,1,1.25-.48h1.86S182.06,67.64,182.06,67.65Z" transform="translate(-36.85 -51.61)"/><path class="cls-1" d="M83.63,85.53a.6.6,0,0,0-.39-.51,1.29,1.29,0,0,0-.38,0h-2.7a.79.79,0,0,0-.8.54v0L75.9,99.34a.83.83,0,0,0,0,.53c.09.23.32.34.69.34h1.82a.88.88,0,0,0,.43-.11.69.69,0,0,0,.33-.43c0-.12.08-.29.12-.52l.15-.7.15-.69.11-.48,0-.09h3.47l0,.08.54,2.37v0a.76.76,0,0,0,.78.53h1.92c.54,0,.66-.31.68-.45a.87.87,0,0,0,0-.46Zm-1.09,8.84H80.47l.7-3.22.32-1.56.34,1.62Z" transform="translate(-36.85 -51.61)"/><path class="cls-1" d="M100.48,85.28a.57.57,0,0,0-.56-.32H97.81a1.35,1.35,0,0,0-.5.07,1,1,0,0,0-.39.31l-3.81,4.74V85.64a.63.63,0,0,0-.67-.67H90.51a.66.66,0,0,0-.72.7V99.53a.62.62,0,0,0,.65.67h2a.63.63,0,0,0,.65-.7l0-4.19a2,2,0,0,1,.51-1.39,1.82,1.82,0,0,1,1.42-.54,2.1,2.1,0,0,1,.88.16,1.34,1.34,0,0,1,.52.41,1.83,1.83,0,0,1,.29.6,3.49,3.49,0,0,1,.12.71l.28,4.29a.66.66,0,0,0,.7.65h1.89a.63.63,0,0,0,.65-.7v0l-.31-4.42a4.78,4.78,0,0,0-.79-2.8,3.51,3.51,0,0,0-2.42-1.41,1.86,1.86,0,0,0-.43-.05h0l3.95-4.92A.6.6,0,0,0,100.48,85.28Z" transform="translate(-36.85 -51.61)"/><path class="cls-1" d="M110.38,85.53A.6.6,0,0,0,110,85a1.29,1.29,0,0,0-.38,0h-2.7a.79.79,0,0,0-.8.54v0l-3.46,13.8a.83.83,0,0,0,0,.53c.09.23.32.34.69.34h1.82a.88.88,0,0,0,.43-.11.69.69,0,0,0,.33-.43c0-.12.08-.29.12-.52l.15-.7.15-.69.11-.48,0-.09H110l0,.08.54,2.37v0a.76.76,0,0,0,.78.53h1.92c.54,0,.66-.31.68-.45a.87.87,0,0,0,0-.46Zm-1.09,8.84h-2.07l.7-3.22.32-1.56.34,1.62Z" transform="translate(-36.85 -51.61)"/><path class="cls-1" d="M128,97.2h-.49V85.8a.88.88,0,0,0-.21-.67.84.84,0,0,0-.58-.17h-7.48a1,1,0,0,0-.58.16.89.89,0,0,0-.31.64v0q0,1-.11,2.15c0,.78-.08,1.52-.13,2.22s-.09,1.34-.14,1.9-.09.95-.12,1.19c-.06.57-.13,1.09-.2,1.55a7,7,0,0,1-.28,1.21,2.72,2.72,0,0,1-.42.82,1.19,1.19,0,0,1-.53.38l-.25.07-.13,0-.1,0a1.11,1.11,0,0,0-.54.41,1.32,1.32,0,0,0-.16.72v2.34a.71.71,0,0,0,.27.57.92.92,0,0,0,.52.13h1.47a.9.9,0,0,0,.47-.12.85.85,0,0,0,.32-.63.23.23,0,0,0,0,0v-.43l0-.07h7.25v.49a.3.3,0,0,0,0,.05.92.92,0,0,0,.26.57.84.84,0,0,0,.58.18h1.49a1,1,0,0,0,.47-.11.8.8,0,0,0,.32-.66V98.07a1.3,1.3,0,0,0-.08-.5A.65.65,0,0,0,128,97.2ZM124.19,88v9.21h-3.94a4.86,4.86,0,0,0,.25-.67,10.3,10.3,0,0,0,.26-1.12c.06-.38.11-.76.15-1.13s.06-.68.1-1,0-.62.08-1.09.08-1,.11-1.54.06-1.05.09-1.55.05-.85.07-1.13h2.84Z" transform="translate(-36.85 -51.61)"/><path class="cls-1" d="M141.14,99.46V97.9a.66.66,0,0,0-.7-.72H135v-3.3s0,0,0,0h4.42a.66.66,0,0,0,.7-.72V91.6a.67.67,0,0,0-.7-.75H135a.31.31,0,0,1,0-.08V87.95h5.34a.67.67,0,0,0,.7-.75V85.66a.64.64,0,0,0-.25-.56.81.81,0,0,0-.47-.14h-7.88a.68.68,0,0,0-.75.72v13.8a.68.68,0,0,0,.75.72h8A.67.67,0,0,0,141.14,99.46Z" transform="translate(-36.85 -51.61)"/><path class="cls-1" d="M149.72,99.72a1.52,1.52,0,0,0,.48.06h1.09a.79.79,0,0,0,.58-.21,1.5,1.5,0,0,0,.27-.39v0l1.73-4.48.47-1.25v6.11a.65.65,0,0,0,.73.67h1.74a.68.68,0,0,0,.75-.72V85.75a.75.75,0,0,0-.82-.79h-1.41a1,1,0,0,0-1,.58v0l-2.55,6.6c-.05.12-.13.33-.24.63l-.35.94-.36,1,0,.08-1-2.56-.27-.7c-.13-.33-.28-.71-.45-1.18s-.34-.91-.55-1.44L148,87.45l-.46-1.19-.27-.69v0a.87.87,0,0,0-.49-.53,1.86,1.86,0,0,0-.53-.06h-1.47a.75.75,0,0,0-.82.79V99.49a.68.68,0,0,0,.75.72h1.73a.66.66,0,0,0,.75-.67V93.61l.42,1.19,1.69,4.45A.81.81,0,0,0,149.72,99.72Z" transform="translate(-36.85 -51.61)"/><path class="cls-1" d="M170.94,85h-1.31a1.1,1.1,0,0,0-.66.18,1.5,1.5,0,0,0-.4.46c-.81,1.46-1.61,2.94-2.39,4.4-.62,1.16-1.26,2.33-1.91,3.51V85.68a.68.68,0,0,0-.75-.72h-1.75a.69.69,0,0,0-.77.72v13.8a.69.69,0,0,0,.77.72h1.33a1.51,1.51,0,0,0,.57-.08,1.06,1.06,0,0,0,.47-.49l2.43-4.45,1.9-3.48v7.78a.68.68,0,0,0,.74.72h1.74a.68.68,0,0,0,.74-.72V85.68A.68.68,0,0,0,170.94,85Z" transform="translate(-36.85 -51.61)"/><path class="cls-1" d="M184.63,85h-4.76a5.58,5.58,0,0,0-1.86.3,4.26,4.26,0,0,0-1.51.91,4.21,4.21,0,0,0-1,1.46,4.93,4.93,0,0,0-.36,1.91,5.41,5.41,0,0,0,.57,2.49,6.62,6.62,0,0,0,1.41,1.87h0l-2.51,5.32a.75.75,0,0,0-.08.57.49.49,0,0,0,.25.28,1,1,0,0,0,.45.13h1.7a1.09,1.09,0,0,0,.84-.25,2.2,2.2,0,0,0,.29-.41v0l2.25-4.89,0-.06H182v4.94a.68.68,0,0,0,.77.7h1.82a.67.67,0,0,0,.75-.7V85.68A.68.68,0,0,0,184.63,85Zm-2.57,3v3.6h-2.4a.66.66,0,0,1-.35-.08,1.69,1.69,0,0,1-.63-.88,3.39,3.39,0,0,1-.19-1,1.7,1.7,0,0,1,.47-1.24,1.64,1.64,0,0,1,1.25-.48h1.86S182.06,88,182.06,88Z" transform="translate(-36.85 -51.61)"/><path class="cls-1" d="M144.46,106.62a4.37,4.37,0,0,0-1.54-1,5.69,5.69,0,0,0-2-.34h-4.4a.67.67,0,0,0-.77.67v13.87a.68.68,0,0,0,.77.7h1.82a.67.67,0,0,0,.75-.7v-5.27h1.86a5.36,5.36,0,0,0,1.94-.34,4.71,4.71,0,0,0,1.54-1,4.44,4.44,0,0,0,1-1.46,4.52,4.52,0,0,0,.37-1.83,5.06,5.06,0,0,0-.34-1.87A4.43,4.43,0,0,0,144.46,106.62Zm-2,3.33a1.65,1.65,0,0,1-.43,1.2,1.49,1.49,0,0,1-1.14.45H139a.35.35,0,0,1,0,0v-3.24s0,0,0,0h1.86a1.38,1.38,0,0,1,1.16.49A1.84,1.84,0,0,1,142.47,109.94Z" transform="translate(-36.85 -51.61)"/><path class="cls-1" d="M157.33,117.51h-5.46v-3.3s0,0,0,0h4.41a.66.66,0,0,0,.7-.72v-1.52a.67.67,0,0,0-.7-.75h-4.41a.3.3,0,0,1,0-.08v-2.83h5.34a.67.67,0,0,0,.7-.75V106a.64.64,0,0,0-.26-.56.8.8,0,0,0-.47-.14H149.3a.68.68,0,0,0-.75.72v13.8a.68.68,0,0,0,.75.72h8a.67.67,0,0,0,.7-.75v-1.56A.66.66,0,0,0,157.33,117.51Z" transform="translate(-36.85 -51.61)"/><path class="cls-1" d="M170.28,105.27h-1.8a.66.66,0,0,0-.75.67v5.21a.43.43,0,0,1,0,.22.47.47,0,0,1-.11.13,2.69,2.69,0,0,1-.79.38,3.38,3.38,0,0,1-1,.15,1.91,1.91,0,0,1-1.53-.51,2.09,2.09,0,0,1-.45-1.39v-4.19a.67.67,0,0,0-.77-.67h-1.85a.66.66,0,0,0-.75.67v4.59a4.38,4.38,0,0,0,1.28,3.32,4.78,4.78,0,0,0,3.42,1.21,6.28,6.28,0,0,0,1.52-.16,9.49,9.49,0,0,0,1.07-.34v5.32c0,.31.2.65.75.65h1.8c.57,0,.77-.34.77-.65V105.94A.67.67,0,0,0,170.28,105.27Z" transform="translate(-36.85 -51.61)"/><path class="cls-1" d="M184.63,105.29h-1.31a1.1,1.1,0,0,0-.66.18,1.5,1.5,0,0,0-.4.46c-.81,1.46-1.61,2.94-2.39,4.4-.62,1.16-1.26,2.34-1.91,3.51V106a.68.68,0,0,0-.75-.72h-1.75a.69.69,0,0,0-.77.72v13.8a.69.69,0,0,0,.77.72h1.33a1.51,1.51,0,0,0,.57-.08,1.05,1.05,0,0,0,.47-.49l2.43-4.45,1.9-3.48v7.78a.68.68,0,0,0,.74.72h1.74a.68.68,0,0,0,.74-.72V106A.68.68,0,0,0,184.63,105.29Z" transform="translate(-36.85 -51.61)"/><path class="cls-1" d="M40.9,121.27a2,2,0,0,1-1.79,1,2.55,2.55,0,0,1-.83-.13,1.81,1.81,0,0,1-.64-.37,1.62,1.62,0,0,1-.41-.58,1.91,1.91,0,0,1-.14-.75v-1.21a1.92,1.92,0,0,1,.15-.77,1.66,1.66,0,0,1,.42-.58,1.9,1.9,0,0,1,.64-.37,2.46,2.46,0,0,1,.82-.13,2.1,2.1,0,0,1,1,.24,2.06,2.06,0,0,1,.74.76.33.33,0,0,1,0,.14.17.17,0,0,1-.09.14l-.6.34c-.09.06-.16.06-.2,0a.72.72,0,0,1-.12-.16.92.92,0,0,0-.36-.35.93.93,0,0,0-.44-.12.83.83,0,0,0-.6.24.78.78,0,0,0-.24.58v1.25a.74.74,0,0,0,.24.57.84.84,0,0,0,.59.23,1,1,0,0,0,.46-.11.78.78,0,0,0,.35-.34.67.67,0,0,1,.12-.16s.12,0,.21,0l.6.33a.18.18,0,0,1,.09.14A.34.34,0,0,1,40.9,121.27Z" transform="translate(-36.85 -51.61)"/><path class="cls-1" d="M45.56,122.19h-.83c-.12,0-.17-.05-.17-.16v-3.39a.22.22,0,0,0,0-.13.15.15,0,0,0-.13-.05h-1.3c-.08,0-.13,0-.15,0a.19.19,0,0,0,0,.12V122a.15.15,0,0,1-.17.17h-.82c-.11,0-.17-.05-.17-.16v-4.42a.15.15,0,0,1,.17-.17h3.64c.11,0,.17.05.17.16V122C45.72,122.14,45.66,122.19,45.56,122.19Z" transform="translate(-36.85 -51.61)"/><path class="cls-1" d="M50.76,119.73a.32.32,0,0,1-.09.24.29.29,0,0,1-.21.09H48.15a.21.21,0,0,0-.17.05.19.19,0,0,0,0,.13v.16a.86.86,0,0,0,.23.59.76.76,0,0,0,.6.25.89.89,0,0,0,.54-.16,2.07,2.07,0,0,0,.37-.34.35.35,0,0,1,.11-.09s.09,0,.15,0l.52.33a.58.58,0,0,1,.14.13.14.14,0,0,1,0,.16,1.65,1.65,0,0,1-.77.73,2.45,2.45,0,0,1-1,.22,2.55,2.55,0,0,1-.83-.13,1.77,1.77,0,0,1-.63-.37,1.66,1.66,0,0,1-.4-.58,1.88,1.88,0,0,1-.14-.74v-1.21a2,2,0,0,1,.14-.76,1.72,1.72,0,0,1,.41-.59,1.8,1.8,0,0,1,.63-.39,2.35,2.35,0,0,1,.81-.13,2.42,2.42,0,0,1,.8.13,1.82,1.82,0,0,1,.64.37,1.74,1.74,0,0,1,.42.59,2,2,0,0,1,.15.78Zm-2-1.36a.76.76,0,0,0-.57.22.86.86,0,0,0-.25.53c0,.1.06.15.18.15h1.29a.14.14,0,0,0,.12-.06.22.22,0,0,0,0-.14.76.76,0,0,0-.27-.51A.83.83,0,0,0,48.77,118.37Z" transform="translate(-36.85 -51.61)"/><path class="cls-1" d="M52,122.19a.18.18,0,0,1-.2-.19v-4.37c0-.13.07-.19.2-.19h.76c.13,0,.2.06.2.19V121c0,.06,0,.09,0,.11a.26.26,0,0,0,.12,0h1.28c.08,0,.13,0,.15,0a.17.17,0,0,0,0-.11v-3.39a.26.26,0,0,1,0-.14.16.16,0,0,1,.14-.06h.77c.14,0,.21.06.21.19v3.43a.21.21,0,0,0,0,.09s0,0,.08,0h.42c.07,0,.11,0,.13.05a.43.43,0,0,1,0,.15v1.82c0,.08,0,.13,0,.14a.23.23,0,0,1-.12,0h-.6a.26.26,0,0,1-.14,0s0-.08,0-.18v-.84a.14.14,0,0,0,0-.11l-.12,0Z" transform="translate(-36.85 -51.61)"/><path class="cls-1" d="M57.17,117.63q0-.18.21-.18h.76a.2.2,0,0,1,.16.05.22.22,0,0,1,0,.14V120c0,.07,0,.11.06.11a.09.09,0,0,0,.07-.05l.2-.33.19-.33.55-.88.55-.88a.5.5,0,0,1,.13-.14.34.34,0,0,1,.18,0h.64a.17.17,0,0,1,.19.19V122c0,.11-.06.17-.19.17h-.77q-.21,0-.21-.18v-2.39c0-.06,0-.1,0-.1s0,0-.05,0l-.2.33-.21.32L58.29,122q-.07.12-.14.13l-.15,0h-.63q-.21,0-.21-.18Z" transform="translate(-36.85 -51.61)"/><path class="cls-1" d="M66,122c0,.1,0,.15-.14.15h-.83a.1.1,0,0,1-.12-.12V122q0-.16-.15,0a1.61,1.61,0,0,1-.39.21,1.53,1.53,0,0,1-.58.1,1.82,1.82,0,0,1-1.29-.44,1.79,1.79,0,0,1,0-2.43,1.87,1.87,0,0,1,1.35-.46,1.61,1.61,0,0,1,.82.22.16.16,0,0,0,.1,0s0,0,0-.09V119a.59.59,0,0,0-.19-.48,1,1,0,0,0-.63-.16l-.26,0-.3.05-.3.08-.26.09c-.12,0-.2,0-.24-.1l-.19-.55a.15.15,0,0,1,0-.13.17.17,0,0,1,.09-.08,3.52,3.52,0,0,1,.77-.26,3.86,3.86,0,0,1,.81-.09,2.72,2.72,0,0,1,.87.12,1.46,1.46,0,0,1,.58.35,1.36,1.36,0,0,1,.33.56,2.53,2.53,0,0,1,.1.74Zm-1.25-1.47a.84.84,0,0,0-.22-.55.76.76,0,0,0-.59-.23.8.8,0,0,0-.62.22.79.79,0,0,0-.21.56.8.8,0,0,0,.21.56.77.77,0,0,0,.6.23.76.76,0,0,0,.63-.24A.84.84,0,0,0,64.8,120.58Z" transform="translate(-36.85 -51.61)"/><path class="cls-1" d="M67.74,117.44h3c.11,0,.17,0,.17.15V122c0,.1-.06.15-.17.15h-.84c-.11,0-.16,0-.16-.14v-3.44a.34.34,0,0,0,0-.12s0,0-.1,0h-.81c-.08,0-.13.05-.13.16v1a7.57,7.57,0,0,1-.11,1.14,2.55,2.55,0,0,1-.26.77,1.71,1.71,0,0,1-.43.52,3.59,3.59,0,0,1-.63.39q-.12.05-.16,0a.31.31,0,0,1-.07-.1l-.28-.55c0-.06,0-.1,0-.12a.42.42,0,0,1,.11-.09,1.4,1.4,0,0,0,.39-.31,1.2,1.2,0,0,0,.22-.43,2.75,2.75,0,0,0,.11-.62q0-.36,0-.88v-1.71C67.56,117.49,67.62,117.44,67.74,117.44Z" transform="translate(-36.85 -51.61)"/><path class="cls-1" d="M72,117.63q0-.18.21-.18H73a.2.2,0,0,1,.16.05.22.22,0,0,1,0,.14V120c0,.07,0,.11.06.11a.09.09,0,0,0,.07-.05l.2-.33.19-.33.55-.88.55-.88a.5.5,0,0,1,.13-.14.34.34,0,0,1,.18,0h.64a.17.17,0,0,1,.19.19V122c0,.11-.06.17-.19.17H75q-.21,0-.21-.18v-2.39c0-.06,0-.1,0-.1s0,0-.05,0l-.2.33-.21.32L73.14,122q-.07.12-.14.13l-.15,0h-.63q-.21,0-.21-.18Z" transform="translate(-36.85 -51.61)"/><path class="cls-1" d="M78.47,121.24a.93.93,0,0,0,.55-.15.5.5,0,0,0,.21-.43.44.44,0,0,0-.14-.36.56.56,0,0,0-.37-.12h-.65c-.11,0-.16,0-.16-.14v-.6a.12.12,0,0,1,0-.11.2.2,0,0,1,.11,0h.63a.7.7,0,0,0,.38-.1.34.34,0,0,0,.16-.31.43.43,0,0,0-.21-.38,1,1,0,0,0-.53-.14,1.16,1.16,0,0,0-.44.09,1.07,1.07,0,0,0-.4.3.46.46,0,0,1-.16.11.19.19,0,0,1-.18-.06l-.43-.4a.2.2,0,0,1-.09-.15.17.17,0,0,1,0-.14,2.07,2.07,0,0,1,.8-.59,2.8,2.8,0,0,1,1-.19,2.54,2.54,0,0,1,.67.09,1.67,1.67,0,0,1,.56.27,1.3,1.3,0,0,1,.54,1.09,1.24,1.24,0,0,1-.13.54.75.75,0,0,1-.39.39s0,0,0,0,0,0,0,0a.81.81,0,0,1,.42.39,1.13,1.13,0,0,1,.14.51,1.5,1.5,0,0,1-.14.67,1.35,1.35,0,0,1-.4.48,1.8,1.8,0,0,1-.6.29,2.86,2.86,0,0,1-.77.1,2.56,2.56,0,0,1-.93-.17,2,2,0,0,1-.81-.62.21.21,0,0,1,0-.13.23.23,0,0,1,.1-.17l.47-.42q.09-.09.15-.07a.31.31,0,0,1,.15.1,3.12,3.12,0,0,0,.4.34A.8.8,0,0,0,78.47,121.24Z" transform="translate(-36.85 -51.61)"/><path class="cls-1" d="M81.42,117.63q0-.18.21-.18h.76a.2.2,0,0,1,.16.05.22.22,0,0,1,0,.14V120c0,.07,0,.11.06.11a.09.09,0,0,0,.07-.05l.2-.33.19-.33.55-.88.55-.88a.5.5,0,0,1,.13-.14.34.34,0,0,1,.18,0h.64a.17.17,0,0,1,.19.19V122c0,.11-.06.17-.19.17h-.77q-.21,0-.21-.18v-2.39c0-.06,0-.1,0-.1s0,0-.05,0l-.2.33-.21.32L82.54,122q-.07.12-.14.13l-.15,0h-.63q-.21,0-.21-.18Z" transform="translate(-36.85 -51.61)"/><path class="cls-1" d="M90.48,120.52a1.94,1.94,0,0,1-.12.68,1.65,1.65,0,0,1-.34.56,1.59,1.59,0,0,1-.56.38,2,2,0,0,1-.76.14,1.64,1.64,0,0,1-.52-.07,1.3,1.3,0,0,1-.34-.16c-.12-.08-.18-.07-.18,0v1.87a.15.15,0,0,1-.17.17h-.82c-.12,0-.18-.05-.18-.16v-6.35c0-.11.06-.16.17-.16h.8c.11,0,.16,0,.16.15v.09a.1.1,0,0,0,0,.06s0,0,.09,0a2.37,2.37,0,0,1,.43-.24,1.56,1.56,0,0,1,.61-.11,1.88,1.88,0,0,1,.75.14,1.48,1.48,0,0,1,.54.39,1.56,1.56,0,0,1,.32.58,2.51,2.51,0,0,1,.1.73Zm-1.17-1.29a.85.85,0,0,0-.21-.59.79.79,0,0,0-.62-.24.82.82,0,0,0-.6.24.75.75,0,0,0-.23.58v1.21a.85.85,0,0,0,.22.59.76.76,0,0,0,.6.25.78.78,0,0,0,.65-.24.92.92,0,0,0,.19-.59Z" transform="translate(-36.85 -51.61)"/><path class="cls-1" d="M95.44,120.43a1.7,1.7,0,0,1-.54,1.36,2.14,2.14,0,0,1-1.45.47,2.12,2.12,0,0,1-1.46-.48,1.67,1.67,0,0,1-.54-1.32v-1.28a1.82,1.82,0,0,1,.14-.74,1.68,1.68,0,0,1,.41-.57,1.88,1.88,0,0,1,.63-.37,2.35,2.35,0,0,1,.81-.13,2.15,2.15,0,0,1,1.46.47,1.68,1.68,0,0,1,.55,1.35Zm-1.17-1.23a.84.84,0,0,0-.21-.6.82.82,0,0,0-.62-.23.79.79,0,0,0-.61.23.84.84,0,0,0-.21.6v1.21a.86.86,0,0,0,.21.6.79.79,0,0,0,.62.23.78.78,0,0,0,.83-.83Z" transform="translate(-36.85 -51.61)"/><path class="cls-1" d="M99.87,119.68s0,0,0,0l0,0a1.06,1.06,0,0,1,.49.43,1.17,1.17,0,0,1,.18.6,1.32,1.32,0,0,1-.43,1,1.66,1.66,0,0,1-1.14.38H96.74q-.21,0-.21-.19v-4.36q0-.2.21-.2h2a1.93,1.93,0,0,1,1.18.33,1.15,1.15,0,0,1,.44,1,1.11,1.11,0,0,1-.13.51A1,1,0,0,1,99.87,119.68Zm-1.14-.31a.43.43,0,0,0,.35-.14.5.5,0,0,0,.12-.33.44.44,0,0,0-.12-.32.48.48,0,0,0-.36-.12h-.93a.08.08,0,0,0-.1.1v.74s0,.07.1.07Zm.11,1.81a.46.46,0,0,0,.37-.15.52.52,0,0,0,.13-.35.59.59,0,0,0-.12-.37.47.47,0,0,0-.4-.16h-1a.08.08,0,0,0-.07,0,.11.11,0,0,0,0,.06v.85a.11.11,0,0,0,0,.06s0,0,.09,0Z" transform="translate(-36.85 -51.61)"/><path class="cls-1" d="M105.37,122c0,.1,0,.15-.14.15h-.84a.1.1,0,0,1-.12-.12V122q0-.16-.15,0a1.61,1.61,0,0,1-.39.21,1.53,1.53,0,0,1-.58.1,1.82,1.82,0,0,1-1.29-.44,1.79,1.79,0,0,1,0-2.43,1.87,1.87,0,0,1,1.35-.46,1.61,1.61,0,0,1,.82.22.16.16,0,0,0,.1,0s0,0,0-.09V119a.59.59,0,0,0-.19-.48,1,1,0,0,0-.63-.16l-.26,0-.3.05-.3.08-.26.09c-.12,0-.2,0-.24-.1l-.19-.55a.15.15,0,0,1,0-.13.17.17,0,0,1,.08-.08,3.52,3.52,0,0,1,.77-.26,3.86,3.86,0,0,1,.81-.09,2.72,2.72,0,0,1,.87.12,1.46,1.46,0,0,1,.58.35,1.36,1.36,0,0,1,.33.56,2.53,2.53,0,0,1,.1.74Zm-1.25-1.47a.84.84,0,0,0-.22-.55.76.76,0,0,0-.59-.23.8.8,0,0,0-.62.22.79.79,0,0,0-.21.56.8.8,0,0,0,.21.56.77.77,0,0,0,.6.23.76.76,0,0,0,.63-.24A.84.84,0,0,0,104.12,120.58Z" transform="translate(-36.85 -51.61)"/><path class="cls-1" d="M109.26,117.63a.18.18,0,0,1,.06-.14.22.22,0,0,1,.16-.05h.74q.21,0,.21.19V122c0,.13-.07.19-.2.19h-.75q-.21,0-.21-.18v-1.7q0-.11-.13-.11h-1.34c-.05,0-.08,0-.1,0a.14.14,0,0,0,0,.07V122q0,.19-.21.19h-.75c-.14,0-.2-.06-.2-.18v-4.38a.18.18,0,0,1,.2-.19h.76c.14,0,.2.06.2.19v1.58a.09.09,0,0,0,.11.11h1.36c.08,0,.12,0,.12-.11Z" transform="translate(-36.85 -51.61)"/><path class="cls-1" d="M114.31,117.63a.18.18,0,0,1,.06-.14.22.22,0,0,1,.16-.05h.74q.21,0,.21.19V122c0,.13-.07.19-.2.19h-.75q-.21,0-.21-.18v-1.7q0-.11-.13-.11h-1.34c-.05,0-.08,0-.1,0a.14.14,0,0,0,0,.07V122q0,.19-.21.19h-.75c-.14,0-.2-.06-.2-.18v-4.38a.18.18,0,0,1,.2-.19h.76c.14,0,.2.06.2.19v1.58a.09.09,0,0,0,.11.11h1.36c.08,0,.12,0,.12-.11Z" transform="translate(-36.85 -51.61)"/><path class="cls-1" d="M120.66,120.56a1.88,1.88,0,0,1-.1.62,1.4,1.4,0,0,1-.32.52,1.66,1.66,0,0,1-.55.36,2,2,0,0,1-.78.14h-2.1a.22.22,0,0,1-.16-.05.18.18,0,0,1-.06-.14v-1q0-.59,0-1.23t0-1.23v-1c0-.13.07-.19.2-.19h.74c.14,0,.21.06.21.19v1.21c0,.06,0,.1.11.1h1.05a1.92,1.92,0,0,1,.76.14,1.62,1.62,0,0,1,.54.36,1.5,1.5,0,0,1,.32.51A1.68,1.68,0,0,1,120.66,120.56Zm-1.08,0a.66.66,0,0,0-.16-.47.61.61,0,0,0-.47-.18h-1.06c-.08,0-.12,0-.12.1v1.1c0,.06,0,.09.12.09h1.06a.58.58,0,0,0,.47-.2A.68.68,0,0,0,119.58,120.57Zm2.71,1.44q0,.18-.21.18h-.77c-.13,0-.19-.06-.19-.18v-4.37a.17.17,0,0,1,.19-.19h.77q.21,0,.21.18Z" transform="translate(-36.85 -51.61)"/><path class="cls-1" d="M123.42,117.63q0-.18.21-.18h.76a.2.2,0,0,1,.16.05.22.22,0,0,1,0,.14V120c0,.07,0,.11.06.11a.09.09,0,0,0,.07-.05l.2-.33.19-.33.55-.88.55-.88a.5.5,0,0,1,.13-.14.34.34,0,0,1,.18,0h.64a.17.17,0,0,1,.19.19V122c0,.11-.06.17-.19.17h-.77q-.21,0-.21-.18v-2.39c0-.06,0-.1,0-.1s0,0-.05,0l-.2.33-.21.32L124.55,122q-.07.12-.14.13l-.15,0h-.63q-.21,0-.21-.18Zm.68-2.14a.2.2,0,0,1,0-.13s.07,0,.14,0h.35c.08,0,.13,0,.14,0l0,.13a1.13,1.13,0,0,0,.23.46.55.55,0,0,0,.44.18.56.56,0,0,0,.44-.16,1.16,1.16,0,0,0,.23-.47l0-.14s.06,0,.16,0h.34c.08,0,.13,0,.15,0s0,.07,0,.14a2,2,0,0,1-.12.56,1.53,1.53,0,0,1-.28.47,1.27,1.27,0,0,1-.43.32,1.33,1.33,0,0,1-.57.12,1.23,1.23,0,0,1-.55-.12,1.34,1.34,0,0,1-.42-.32,1.47,1.47,0,0,1-.28-.47A2,2,0,0,1,124.11,115.49Z" transform="translate(-36.85 -51.61)"/><path class="cls-1" d="M38.86,126.18h4.86q.26,0,.26.25V135q0,.24-.26.23H42.59q-.26,0-.26-.23v-7.17a.23.23,0,0,0,0-.16.26.26,0,0,0-.18,0H40.33q-.12,0-.15.05a.36.36,0,0,0,0,.17v1.38q0,1.59-.1,2.67a6.55,6.55,0,0,1-.39,1.8,2.75,2.75,0,0,1-.79,1.12,4,4,0,0,1-1.31.68.31.31,0,0,1-.23,0,.43.43,0,0,1-.14-.18l-.31-.76a.34.34,0,0,1,0-.23.33.33,0,0,1,.19-.16,3,3,0,0,0,.77-.53,2,2,0,0,0,.47-.82,6.26,6.26,0,0,0,.24-1.38q.07-.85.07-2.22v-2.81C38.59,126.27,38.68,126.18,38.86,126.18Z" transform="translate(-36.85 -51.61)"/><path class="cls-1" d="M51.8,132.66a2.67,2.67,0,0,1-.23,1.12,2.47,2.47,0,0,1-.62.84,2.74,2.74,0,0,1-.95.53,4,4,0,0,1-2.39,0,2.9,2.9,0,0,1-1-.52,2.41,2.41,0,0,1-.64-.84,2.63,2.63,0,0,1-.24-1.13v-3.94a2.65,2.65,0,0,1,.23-1.12,2.47,2.47,0,0,1,.63-.85,2.77,2.77,0,0,1,1-.54,3.76,3.76,0,0,1,1.2-.18,3.64,3.64,0,0,1,1.17.18,2.93,2.93,0,0,1,1,.53,2.45,2.45,0,0,1,.65.84,2.62,2.62,0,0,1,.24,1.13Zm-1.67-3.92a1.22,1.22,0,0,0-.33-.87,1.3,1.3,0,0,0-1-.35,1.37,1.37,0,0,0-1,.35,1.18,1.18,0,0,0-.35.87v3.91a1.17,1.17,0,0,0,.34.86,1.6,1.6,0,0,0,2,0,1.14,1.14,0,0,0,.36-.86Z" transform="translate(-36.85 -51.61)"/><path class="cls-1" d="M58.8,127.58H55.53a.24.24,0,0,0-.19.06.26.26,0,0,0,0,.16V135a.21.21,0,0,1-.23.23H53.92c-.16,0-.23-.07-.23-.22v-8.61a.21.21,0,0,1,.23-.23H58.8a.27.27,0,0,1,.16.05.19.19,0,0,1,.07.17v1C59,127.5,59,127.58,58.8,127.58Z" transform="translate(-36.85 -51.61)"/><path class="cls-1" d="M65.6,132.66a2.67,2.67,0,0,1-.23,1.12,2.47,2.47,0,0,1-.62.84,2.74,2.74,0,0,1-.95.53,4,4,0,0,1-2.39,0,2.9,2.9,0,0,1-1-.52,2.41,2.41,0,0,1-.64-.84,2.63,2.63,0,0,1-.24-1.13v-3.94a2.65,2.65,0,0,1,.23-1.12,2.47,2.47,0,0,1,.63-.85,2.77,2.77,0,0,1,1-.54,3.76,3.76,0,0,1,1.2-.18,3.64,3.64,0,0,1,1.17.18,2.93,2.93,0,0,1,1,.53,2.45,2.45,0,0,1,.65.84,2.62,2.62,0,0,1,.24,1.13Zm-1.67-3.92a1.22,1.22,0,0,0-.33-.87,1.3,1.3,0,0,0-1-.35,1.37,1.37,0,0,0-1,.35,1.18,1.18,0,0,0-.35.87v3.91a1.17,1.17,0,0,0,.34.86,1.6,1.6,0,0,0,2,0,1.14,1.14,0,0,0,.36-.86Z" transform="translate(-36.85 -51.61)"/><path class="cls-1" d="M73.84,126.42V135q0,.24-.26.23H72.45c-.18,0-.26-.07-.26-.22v-7.17c0-.15-.08-.22-.25-.22H69.42c-.11,0-.17,0-.2.05a.3.3,0,0,0,0,.17V135q0,.24-.28.23H67.78c-.19,0-.28-.07-.28-.22v-8.59c0-.17.09-.25.28-.25h5.8C73.76,126.18,73.84,126.26,73.84,126.42Z" transform="translate(-36.85 -51.61)"/><path class="cls-1" d="M81,133.76c.16,0,.24.08.24.25v1c0,.18-.08.26-.24.26H76c-.18,0-.26-.08-.26-.25v-8.56c0-.17.09-.25.26-.25h4.89a.3.3,0,0,1,.18.05.21.21,0,0,1,.07.18v1q0,.26-.23.26H77.65a.29.29,0,0,0-.19,0,.2.2,0,0,0,0,.15v1.76c0,.17.08.25.24.25h2.7c.16,0,.24.09.24.26V131c0,.17-.08.25-.24.25H77.63a.23.23,0,0,0-.18.05.26.26,0,0,0,0,.17v2a.21.21,0,0,0,.06.18.36.36,0,0,0,.21,0Z" transform="translate(-36.85 -51.61)"/><path class="cls-1" d="M83.36,137c0,.14-.05.22-.1.25a.37.37,0,0,1-.19,0h-.91a.4.4,0,0,1-.21,0,.27.27,0,0,1-.08-.21v-2.67a.65.65,0,0,1,.07-.34.52.52,0,0,1,.24-.18l.13,0,.13,0a.93.93,0,0,0,.44-.31,1.86,1.86,0,0,0,.29-.57,4.55,4.55,0,0,0,.18-.79q.07-.44.13-1,0-.22.07-.74t.09-1.18q0-.66.08-1.38t.07-1.34a.39.39,0,0,1,.11-.26.41.41,0,0,1,.24-.06h4.64a.34.34,0,0,1,.23.06.37.37,0,0,1,.07.26v7.12a.23.23,0,0,0,0,.08.12.12,0,0,0,.1.07h.37c.12,0,.19,0,.21.1a.63.63,0,0,1,0,.24V137c0,.14,0,.22-.09.25a.41.41,0,0,1-.2,0h-.93a.34.34,0,0,1-.23-.06.41.41,0,0,1-.1-.23v-1.59c0-.08,0-.12-.08-.14l-.15,0H83.63a.33.33,0,0,0-.2,0,.4.4,0,0,0-.07.18Zm2-9.34a.1.1,0,0,0-.1.06.24.24,0,0,0,0,.1q0,.26,0,.73t-.06,1q0,.5-.07.95t-.05.68q0,.26-.06.6t-.09.68a6.12,6.12,0,0,1-.15.68,2.56,2.56,0,0,1-.24.58s0,.06,0,.07h2.86s.06,0,.06-.12v-5.8c0-.12-.07-.18-.22-.18Z" transform="translate(-36.85 -51.61)"/><path class="cls-1" d="M91.24,126.43q0-.25.28-.25H92.6c.18,0,.26.08.26.25v5.51s0,0,0,0l0,0q.76-1.37,1.5-2.74t1.48-2.73a.74.74,0,0,1,.19-.22.49.49,0,0,1,.29-.07h.82c.17,0,.26.08.26.25V135c0,.17-.09.25-.26.25H96.12c-.17,0-.26-.08-.26-.25v-5.51s0,0,0,0h0v0l-1.5,2.76L92.81,135a.48.48,0,0,1-.19.21.78.78,0,0,1-.28,0h-.82q-.28,0-.28-.25Z" transform="translate(-36.85 -51.61)"/><path class="cls-1" d="M103.47,131.54a.05.05,0,0,0-.06-.06h-.07a5.85,5.85,0,0,1-.78.26,3.74,3.74,0,0,1-.9.1,2.76,2.76,0,0,1-2-.7,2.51,2.51,0,0,1-.73-1.92v-2.85q0-.22.26-.22h1.15c.19,0,.28.07.28.22V129a1.5,1.5,0,0,0,.32,1,1.36,1.36,0,0,0,1.1.39,2.28,2.28,0,0,0,.68-.1,1.86,1.86,0,0,0,.55-.26.49.49,0,0,0,.12-.14.45.45,0,0,0,.06-.24v-3.23c0-.15.09-.22.26-.22h1.12c.19,0,.28.07.28.22V135c0,.14-.09.21-.28.21h-1.12c-.18,0-.26-.07-.26-.21Z" transform="translate(-36.85 -51.61)"/><path class="cls-1" d="M112.18,133.76c.16,0,.24.08.24.25v1c0,.18-.08.26-.24.26h-5c-.18,0-.26-.08-.26-.25v-8.56c0-.17.09-.25.26-.25h4.89a.3.3,0,0,1,.18.05.21.21,0,0,1,.07.18v1q0,.26-.23.26h-3.28a.29.29,0,0,0-.19,0,.2.2,0,0,0,0,.15v1.76c0,.17.08.25.24.25h2.7c.16,0,.24.09.24.26V131c0,.17-.08.25-.24.25h-2.72a.23.23,0,0,0-.18.05.26.26,0,0,0,0,.17v2a.21.21,0,0,0,.06.18.36.36,0,0,0,.21,0Z" transform="translate(-36.85 -51.61)"/><path class="cls-1" d="M116.67,135.33a3.56,3.56,0,0,1-1.17-.18,2.67,2.67,0,0,1-.91-.52,2.35,2.35,0,0,1-.6-.82,2.68,2.68,0,0,1-.21-1.09v-4.07a2.64,2.64,0,0,1,.21-1.07,2.35,2.35,0,0,1,.6-.82,2.8,2.8,0,0,1,.9-.53,3.29,3.29,0,0,1,1.14-.19,4,4,0,0,1,1.46.27,2.83,2.83,0,0,1,1.26,1.06.26.26,0,0,1,.07.19.27.27,0,0,1-.14.19l-.79.6a.24.24,0,0,1-.23,0,.33.33,0,0,1-.17-.15,1.59,1.59,0,0,0-1.4-.73,1.18,1.18,0,0,0-.93.36,1.24,1.24,0,0,0-.32.84v4a1.1,1.1,0,0,0,.32.8,1.25,1.25,0,0,0,.94.33,1.53,1.53,0,0,0,.76-.2,2.19,2.19,0,0,0,.6-.49l.15-.15c.05-.05.13-.05.23,0l.88.54a.3.3,0,0,1,.14.15.22.22,0,0,1,0,.2,2.94,2.94,0,0,1-1.23,1.1A3.71,3.71,0,0,1,116.67,135.33Z" transform="translate(-36.85 -51.61)"/><path class="cls-1" d="M127,135c0,.16-.07.23-.21.23h-1.17a.21.21,0,0,1-.24-.22l-.18-2.66a2.39,2.39,0,0,0-.08-.48,1.32,1.32,0,0,0-.21-.44,1,1,0,0,0-.4-.32,1.49,1.49,0,0,0-.63-.12,1.33,1.33,0,0,0-1,.4,1.41,1.41,0,0,0-.37,1V135q0,.24-.21.23H121q-.21,0-.21-.22v-8.61c0-.16.08-.23.25-.23h1.19a.19.19,0,0,1,.22.22v3.06c0,.08,0,.11.06.1l.12-.06,2.54-3.16a.46.46,0,0,1,.16-.13.68.68,0,0,1,.24,0h1.31c.09,0,.14,0,.17.08a.18.18,0,0,1,0,.18l-2.57,3.2c-.08.11-.06.16.06.16h.23l.23,0a2,2,0,0,1,1.38.79,2.76,2.76,0,0,1,.46,1.63Z" transform="translate(-36.85 -51.61)"/><path class="cls-1" d="M128.6,126.43q0-.25.28-.25H130c.18,0,.26.08.26.25v5.51s0,0,0,0l0,0q.76-1.37,1.5-2.74t1.48-2.73a.74.74,0,0,1,.19-.22.5.5,0,0,1,.29-.07h.82c.17,0,.26.08.26.25V135c0,.17-.09.25-.26.25h-1.08c-.17,0-.26-.08-.26-.25v-5.51s0,0,0,0h0v0l-1.5,2.76L130.17,135a.48.48,0,0,1-.19.21.78.78,0,0,1-.28,0h-.82q-.28,0-.28-.25Z" transform="translate(-36.85 -51.61)"/><path class="cls-1" d="M136.67,126.43q0-.25.28-.25H138c.18,0,.26.08.26.25v5.51s0,0,0,0l0,0q.76-1.37,1.49-2.74t1.48-2.73a.72.72,0,0,1,.19-.22.5.5,0,0,1,.29-.07h.82q.26,0,.26.25V135c0,.17-.09.25-.26.25h-1.08c-.17,0-.26-.08-.26-.25v-5.51s0,0,0,0h0l0,0-1.5,2.76-1.5,2.76a.49.49,0,0,1-.19.21.78.78,0,0,1-.28,0h-.82c-.19,0-.28-.08-.28-.25ZM138,124.1a.26.26,0,0,1,0-.16s.09,0,.2,0h.59a.29.29,0,0,1,.18,0,.23.23,0,0,1,0,.15,1,1,0,0,0,.22.62.74.74,0,0,0,.59.23.75.75,0,0,0,.6-.24,1.24,1.24,0,0,0,.26-.62.28.28,0,0,1,.05-.15.29.29,0,0,1,.18,0h.53a.35.35,0,0,1,.18,0s0,.08,0,.19a3,3,0,0,1-.15.73,1.75,1.75,0,0,1-.34.6,1.68,1.68,0,0,1-.57.41,1.93,1.93,0,0,1-.81.15,1.8,1.8,0,0,1-.77-.15,1.71,1.71,0,0,1-.57-.42,1.86,1.86,0,0,1-.36-.6A2.32,2.32,0,0,1,138,124.1Z" transform="translate(-36.85 -51.61)"/><path class="cls-1" d="M148.58,135.25a.23.23,0,0,1-.26-.26v-8.56c0-.16.09-.23.26-.23h1.13q.26,0,.26.25v7.11a.29.29,0,0,0,0,.18s.1.06.22.06h2.51a.21.21,0,0,0,.24-.23v-7.12c0-.16.09-.23.26-.23h1.12q.28,0,.28.25v7.2a.28.28,0,0,0,0,.09s0,0,.09.06h.56c.14,0,.22,0,.24.13a1.12,1.12,0,0,1,0,.26V137c0,.15,0,.23-.1.26a.46.46,0,0,1-.21,0h-.9a.7.7,0,0,1-.24,0c-.07,0-.11-.12-.12-.29v-1.54c0-.09,0-.14-.09-.15l-.15,0Z" transform="translate(-36.85 -51.61)"/><path class="cls-1" d="M162.06,133.76c.16,0,.24.08.24.25v1c0,.18-.08.26-.24.26h-5c-.18,0-.26-.08-.26-.25v-8.56c0-.17.09-.25.26-.25H162a.3.3,0,0,1,.18.05.21.21,0,0,1,.07.18v1q0,.26-.23.26h-3.28a.29.29,0,0,0-.19,0,.2.2,0,0,0,0,.15v1.76c0,.17.08.25.24.25h2.7c.16,0,.24.09.24.26V131c0,.17-.08.25-.24.25H158.7a.23.23,0,0,0-.18.05.26.26,0,0,0,0,.17v2a.21.21,0,0,0,.06.18.36.36,0,0,0,.21,0Z" transform="translate(-36.85 -51.61)"/><path class="cls-1" d="M168.29,126.4c0-.15.08-.22.25-.22h1.13c.19,0,.28.07.28.21V135c0,.16-.09.23-.26.23h-1.13c-.18,0-.26-.07-.26-.22v-3.45a.22.22,0,0,0-.25-.25h-2.39c-.11,0-.18,0-.21.07a.33.33,0,0,0,0,.18V135c0,.16-.09.23-.26.23H164q-.28,0-.28-.22V126.4q0-.22.28-.22h1.13a.37.37,0,0,1,.19,0,.17.17,0,0,1,.07.16v3.22a.41.41,0,0,0,0,.21s.08.05.17.05h2.45a.26.26,0,0,0,.18-.05.31.31,0,0,0,.05-.21Z" transform="translate(-36.85 -51.61)"/><path class="cls-1" d="M177,127.56a.19.19,0,0,1-.18.07h-1.73c-.16,0-.24.06-.24.19V135c0,.16-.09.23-.26.23h-1.13q-.26,0-.26-.22v-7.18a.27.27,0,0,0,0-.15s-.09-.05-.18-.05h-1.65q-.25,0-.25-.26v-.94a.22.22,0,0,1,.25-.25h5.49c.15,0,.22.08.22.23v1A.37.37,0,0,1,177,127.56Z" transform="translate(-36.85 -51.61)"/><path class="cls-1" d="M184.11,128.9a2.61,2.61,0,0,1-.21,1.06,2.54,2.54,0,0,1-.59.84,2.69,2.69,0,0,1-.89.55,3.11,3.11,0,0,1-1.13.2h-1.17c-.08,0-.13,0-.15.05a.25.25,0,0,0,0,.12V135c0,.16-.09.23-.26.23h-1.13q-.28,0-.28-.23V126.4q0-.22.28-.22h2.73a3.31,3.31,0,0,1,1.18.2,2.51,2.51,0,0,1,.89.57,2.55,2.55,0,0,1,.57.87A2.93,2.93,0,0,1,184.11,128.9Zm-1.66,0a1.35,1.35,0,0,0-.3-.85,1,1,0,0,0-.87-.38h-1.15c-.14,0-.21.07-.21.22v2c0,.15.07.22.21.22h1.15a1.12,1.12,0,0,0,.85-.34A1.22,1.22,0,0,0,182.45,128.87Z" transform="translate(-36.85 -51.61)"/><path class="cls-2" d="M63.44,71.24a5.92,5.92,0,0,1-.06-2.64c.48-2.46-5.16,2.37-7,8.56-.87,2.93-1.62,6.09-2.4,9.23C49.73,103.83,41.14,112,41.14,112s9.71-5.53,17.1-18.69c5.4-9.61,6.49-16.38,11.1-18.48C66.56,75.22,64.11,73.85,63.44,71.24Z" transform="translate(-36.85 -51.61)"/><path class="cls-3" d="M64.39,71.34c-.58-2.61,1.88-5.38,5.49-6.19A9.85,9.85,0,0,1,71,65a23.18,23.18,0,0,0-4.53.68C59.89,67.22,57,74.72,53.89,82.09c-5.56,13.17-14.7,18.52-14.7,18.52A45.68,45.68,0,0,0,57.58,88c6.08-6.89,7.67-12.07,12.4-13.17C67.19,74.83,64.86,73.46,64.39,71.34Z" transform="translate(-36.85 -51.61)"/><path class="cls-4" d="M64.39,71.34c-.58-2.61,1.88-5.38,5.49-6.19A9.85,9.85,0,0,1,71,65a23.18,23.18,0,0,0-4.53.68C59.89,67.22,57,74.72,53.89,82.09c-5.56,13.17-14.7,18.52-14.7,18.52A45.68,45.68,0,0,0,57.58,88c6.08-6.89,7.67-12.07,12.4-13.17C67.19,74.83,64.86,73.46,64.39,71.34Z" transform="translate(-36.85 -51.61)"/><path class="cls-5" d="M74.71,65.47a4.34,4.34,0,0,1,2.76,3C78,71,75.59,73.82,72,74.62h.16c3.11,0,1.39,4.11,1.39,4.11s2.31-1.62,3.73-6.31C78.16,69.5,77.71,66.61,74.71,65.47Z" transform="translate(-36.85 -51.61)"/><path class="cls-6" d="M74.71,65.47A7.68,7.68,0,0,0,71,65,9.32,9.32,0,0,1,74.71,65.47Z" transform="translate(-36.85 -51.61)"/><path class="cls-6" d="M77.47,68.43a4.34,4.34,0,0,0-2.76-3A9.32,9.32,0,0,0,71,65a9.85,9.85,0,0,0-1.12.17c-3.61.81-6.06,3.58-5.49,6.19.47,2.12,2.8,3.5,5.59,3.5a8.89,8.89,0,0,1,2-.21h0C75.59,73.82,78,71,77.47,68.43Z" transform="translate(-36.85 -51.61)"/><path class="cls-7" d="M58.73,80.06c-1.86.36-2.94-.12-3.57-.81-.4.92-.79,1.86-1.18,2.79-.48,1.15-1,2.22-1.52,3.25a12.47,12.47,0,0,0,4-.52c2.81-.78,5.61-3.16,7.57-5.17a19.4,19.4,0,0,1,2.71-3.06h0A20.11,20.11,0,0,1,58.73,80.06Z" transform="translate(-36.85 -51.61)"/><path class="cls-8" d="M72.57,69.45c.25,1.52-1.07,3-2.94,3.3s-3.58-.68-3.82-2.19,1.07-3,2.94-3.29S72.33,67.94,72.57,69.45Z" transform="translate(-36.85 -51.61)"/><path class="cls-9" d="M71,70.94a1.81,1.81,0,1,1-.2-2.43A1.73,1.73,0,0,1,71,70.94Z" transform="translate(-36.85 -51.61)"/><path class="cls-9" d="M78.95,66.73c0-.16,0-.33,0-.5,0,.15,0,.3,0,.45Z" transform="translate(-36.85 -51.61)"/><path class="cls-9" d="M72.5,62.78c.41,0,.81,0,1.22,0a8.53,8.53,0,0,0-1-.05Z" transform="translate(-36.85 -51.61)"/><path class="cls-9" d="M77.3,63.36c0-.14-.09-.29-.14-.43s-.29-.5-.45-.75a10.33,10.33,0,0,0-8.24-4.47,12.16,12.16,0,0,0-7.31,2.1,1.77,1.77,0,0,1-.23.16c3.18-2,7.77-.74,11,2.81h0c.17,0,.35,0,.52,0l.23,0a8.53,8.53,0,0,1,1,.05,6.21,6.21,0,0,1,3.66,1.65c.44.42.87.54,1,.86.34-.7-.7-1.35-.69-1.35-.06-.54,0,.65-.17.11C77.45,63.85,77.38,63.61,77.3,63.36Z" transform="translate(-36.85 -51.61)"/><path class="cls-2" d="M74.87,63a5.77,5.77,0,0,1,.68.24A5.33,5.33,0,0,1,78.85,67a4.11,4.11,0,0,1,.07,1l0,0a11.3,11.3,0,0,0,.41-1.58C80.62,59.67,75.63,53,68.22,51.66l-.33-.05C72.2,52.56,75,57.38,74.87,63Z" transform="translate(-36.85 -51.61)"/></svg>