<svg id="Слой_1" data-name="Слой 1" xmlns="http://www.w3.org/2000/svg" viewBox="0 0 380.89 380.89"><defs><style>.cls-1,.cls-2{fill:#fff;}.cls-1{stroke:#fff;stroke-miterlimit:10;}</style></defs><title>mail_ico</title><path class="cls-1" d="M682.84,194.33c-104.74,0-189.94,85.21-189.94,189.94S578.1,574.22,682.84,574.22,872.78,489,872.78,384.27,787.57,194.33,682.84,194.33Zm0,357.89c-92.6,0-167.94-75.34-167.94-167.94s75.34-167.94,167.94-167.94,167.94,75.34,167.94,167.94S775.44,552.22,682.84,552.22Z" transform="translate(-492.39 -193.83)"/><path class="cls-2" d="M800,399.93q0-16.55,0-33.11,0-19.5,0-39c0-20.08-15.16-35.24-35.22-35.24q-80.89,0-161.79,0c-20.11,0-35.29,15.24-35.3,35.42q0,56.18,0,112.36c0,20.28,15.33,35.58,35.65,35.6H719.55c15.24,0,30.61,0,45.82,0a34.55,34.55,0,0,0,34.12-29.49c.51-3.63.51-30,.47-45.52C800,400.61,800,400.27,800,399.93Zm-20.32.25v0c0,4.1,0,12.65,0,20.93,0,9.78,0,19,0,20.28h0a14.09,14.09,0,0,1-14.22,14.23c-2.34,0-4.74,0-7.06,0H603.19c-8.92,0-15.17-5.85-15.18-14.21-.06-39.78,0-79.9,0-114.39a10.15,10.15,0,0,1,.11-1.38l17.68,16.57q26.66,25,53.29,50c14.78,13.89,34.63,13.92,49.38.09q31.08-29.15,62.18-58.29l8.82-8.27a26.24,26.24,0,0,1,.18,2.73c0,23.22,0,47.13,0,71.08C779.66,399.76,779.67,400,779.68,400.18Zm-26.82-77.34c-19.28,18.1-39.22,36.82-58.86,55.2-6.26,5.86-14,5.91-20.16.13-18.17-17-36.61-34.29-54.44-51l-15-14.11H763.3Z" transform="translate(-492.39 -193.83)"/></svg>