<svg id="Слой_1" data-name="Слой 1" xmlns="http://www.w3.org/2000/svg" viewBox="0 0 76.19 86.53"><defs><style>.cls-1{fill:none;stroke-width:2.5px;}.cls-1,.cls-2{stroke:#6e2b90;stroke-miterlimit:10;}.cls-2{fill:#6e2b90;stroke-width:0.8px;}</style></defs><title>mozg_pazl</title><path class="cls-1" d="M74.21,67.21c-.72-4.77,1.62-9,4.5-13,6.21-8.52,7.78-18.72,4.35-28.2-2-6.09-7.25-11.17-14.3-13.91-11.38-4.77-23-5.81-34.57-.79-12,5.16-17,14.6-17.76,26.39a3,3,0,0,0,.15,1.56c2.28,4.19,0,7.7-1.93,11.23-.85,1.56-1.78,3-2.71,4.53-1.51,2.45-.87,3.8,2,4.3l2.71.48c-1.74,4-1.22,7.48,2.57,10.41v.2c-2.15,6.23.81,10.11,7.73,10a42.42,42.42,0,0,0,7.59-1.08c3.21-.65,4.79-.14,6.49,2.46A12.63,12.63,0,0,1,42.49,92H83.08c-1.76-4.14-3.65-8.2-5.18-12.36A64.92,64.92,0,0,1,74.21,67.21Z" transform="translate(-9.9 -6.75)"/><path class="cls-2" d="M49.57,45.81h5.1c-.77-2.29-.31-4.23,1.77-5.55a4,4,0,0,1,4.72.15c1.88,1.35,2.28,3.22,1.52,5.4l.47,0,5.22,0a.72.72,0,0,1,.79.8q0,8.8,0,17.61a2.38,2.38,0,0,1-1.74,2.47,3.14,3.14,0,0,1-.83.09H31.2a2.39,2.39,0,0,1-2.57-2.58q0-17.66,0-35.31a2.41,2.41,0,0,1,2.6-2.61H48.58c.78,0,1,.19,1,1,0,2.2,0,4.41,0,6.61,0,.35,0,.68-.37.86s-.65,0-.94-.23a3,3,0,1,0,0,4.55c.28-.23.56-.43.94-.24s.38.54.38.9q0,2.79,0,5.57C49.57,45.43,49.57,45.6,49.57,45.81ZM48.21,65.4c0-2.11,0-4.18,0-6.25,0-.38,0-.69.42-.86s.63,0,.88.25a2.76,2.76,0,0,0,2.25.71,3,3,0,0,0,2.61-2.43,3,3,0,0,0-1.42-3.09,3,3,0,0,0-3.51.36,1,1,0,0,1-.84.16.92.92,0,0,1-.37-.72c0-1.92,0-3.84,0-5.77,0-.18,0-.35,0-.54H43.1a4.32,4.32,0,0,1-1.4,5.31,4,4,0,0,1-4.62.36c-2.26-1.28-2.74-3.28-2-5.67H30v.57Q30,55.9,30,64c0,1.1.32,1.42,1.42,1.42H47.64Zm1.4,0H66.37c1.07,0,1.39-.33,1.39-1.4q0-8.13,0-16.26c0-.17,0-.35,0-.54-2.1,0-4.16,0-6.21,0-.37,0-.72-.08-.81-.41A1.08,1.08,0,0,1,60.9,46a3,3,0,0,0-4.23-4.18,2.94,2.94,0,0,0-.29,4.08c.23.29.43.57.26.94s-.53.39-.89.39H49.61v5.11a4.35,4.35,0,0,1,5.32,1.41,4.18,4.18,0,0,1,.23,4.81c-1.34,2.07-3.25,2.55-5.56,1.77ZM48.18,27.66H31.33c-1,0-1.33.33-1.33,1.35q0,8.13,0,16.26c0,.17,0,.35,0,.56,2.09,0,4.12,0,6.16,0,.39,0,.73,0,.92.41s0,.65-.28.92a3,3,0,0,0-.31,3.39,3,3,0,1,0,4.8-3.49,1,1,0,0,1-.19-.84.9.9,0,0,1,.7-.41c1.92,0,3.84,0,5.77,0h.55V40.74c-2.25.68-4,.24-5.21-1.28a4.23,4.23,0,0,1-.38-4.84c1.32-2.15,3.26-2.63,5.61-1.87Z" transform="translate(-9.9 -6.75)"/><path class="cls-2" d="M57.54,29.66c-1.95-.25-3.19-1.23-3.48-3.14a3.34,3.34,0,0,1,1.59-3.45c1.3-.87,2.73-.76,4.36.34l.38-.95c.39-1,.77-1.94,1.16-2.9a.72.72,0,0,1,1.1-.47q6.41,2.54,12.82,5.1a2,2,0,0,1,1.17,2.65q-2.54,6.44-5.11,12.87c-.22.55-.53.67-1.11.44-1.6-.63-3.19-1.28-4.8-1.91-.33-.13-.61-.29-.65-.67s.22-.58.53-.76a2.15,2.15,0,0,0,1-2.59,2.18,2.18,0,0,0-4.21,1.12,1.18,1.18,0,0,1,.09.33c0,.26,0,.63-.16.76a1,1,0,0,1-.81.13c-1.12-.4-2.22-.86-3.33-1.3l-1.57-.62c-.66-.27-.78-.54-.52-1.19Zm5.11-9.1-.21.52c-.52,1.31-1,2.62-1.58,3.91a1,1,0,0,1-.62.53c-.22,0-.47-.26-.7-.43-.07-.05-.1-.17-.16-.25a2.18,2.18,0,0,0-4,1.37,2.11,2.11,0,0,0,1.74,2,8.58,8.58,0,0,0,1.26-.08,1.06,1.06,0,0,1,.72.17,1.32,1.32,0,0,1,.15.76,1.2,1.2,0,0,1-.16.41l-1.62,4.09,3.37,1.34a3.57,3.57,0,0,1,3.05-3.48,3.29,3.29,0,0,1,3.43,1.43,3.56,3.56,0,0,1-.24,4.54l3.35,1.32c.06-.12.1-.19.13-.27q2.36-6,4.72-11.9c.23-.58.09-.87-.52-1.11l-6.32-2.51Z" transform="translate(-9.9 -6.75)"/></svg>