<svg id="Слой_1" data-name="Слой 1" xmlns="http://www.w3.org/2000/svg" viewBox="0 0 382.19 381.82"><defs><style>.cls-1{fill:#612f8c;}</style></defs><title>people_hand_ico</title><path class="cls-1" d="M491.18,332.44c1.15-3.51,1.79-7.3,3.55-10.47A24.17,24.17,0,0,1,522.34,310c11.62,3.17,18.58,12.43,18.62,25.23.08,27.87,0,55.74,0,83.61,0,1.44,0,2.88,0,4.55,3.64-2,6.71-4.14,10.08-5.47,6.95-2.75,14.25-2.68,20.47,1.34,13.25,8.56,26.69,17,38.93,26.9,20.63,16.66,32.09,39.09,37.3,64.92,3.53,17.52,7.33,35,10.91,52.49a12.27,12.27,0,0,1,0,5.49A6.46,6.46,0,0,1,652,574a6.82,6.82,0,0,1-6.89-5.74c-2-9.21-3.89-18.46-5.92-27.67-3-13.57-5.32-27.34-9.31-40.62-6.41-21.37-19.87-37.88-38.27-50.38q-11.88-8.07-23.84-16c-6.1-4.06-12.37-3.62-16.5,1.07-4.51,5.13-4.38,12.19.61,17.56,11,11.85,22.15,23.58,33.2,35.39a18.86,18.86,0,0,1,3.16,4.12,7,7,0,0,1-9.42,9.32,14.81,14.81,0,0,1-3.71-3.05c-11-11.66-22-23.41-33-35-10.66-11.18-15.7-24.42-15.62-39.85.14-29.24.05-58.48,0-87.72,0-5.76-2.14-9.25-6.58-11A10.14,10.14,0,0,0,506,333c-.1,1.24-.05,2.49-.05,3.73,0,36.83.12,73.66-.06,110.48a63,63,0,0,0,12.29,38.32q5.8,8,11.42,16.14c1.82,2.65,2.2,5.54.34,8.39a6.45,6.45,0,0,1-7.44,2.93,8,8,0,0,1-4.24-2.69c-5.76-8-11.62-15.86-16.83-24.18a64.55,64.55,0,0,1-9.42-28.4,15.93,15.93,0,0,0-.8-2.83Q491.18,393.67,491.18,332.44Z" transform="translate(-491.18 -192.46)"/><path class="cls-1" d="M761.88,390.51c0,9.35,0,18.05,0,26.75,0,7.84-2.34,10.14-10.26,10.16q-19.78,0-39.57,0a31.76,31.76,0,0,1-3.72-.18c-3.93-.47-6.43-3.18-6.45-6.9a7,7,0,0,1,6.73-7.09c2.82-.18,5.66,0,9,0,0-5.29-.14-10.1,0-14.9.23-6.22,5.32-9.73,10.34-7.27,3.19,1.56,4.11,4.48,4.17,7.76.07,4.35.06,8.71.1,13.06a6.3,6.3,0,0,0,.44,1.24c4.21,0,8.64.06,13.06-.07a2.26,2.26,0,0,0,1.54-1.6c-.31-10.12,1.7-20.44-2.53-30.23S733.11,365.64,723,363c-5.76-1.51-11.61-2.66-17.36-4.22-2.34-.63-3.31.07-4.2,2.17-3.76,8.79-7.71,17.5-11.51,26.28-1.51,3.5-3.3,6.45-7.71,6.39-4.21-.06-6-2.86-7.42-6.25-3.78-8.78-7.76-17.48-11.5-26.28-1-2.24-2-3-4.48-2.3-6.58,1.81-13.33,3-19.83,5.05a30.58,30.58,0,0,0-21.64,28c-.35,6.2-.19,12.44,0,18.66,0,.92,1.29,2.54,2.06,2.59,4.18.26,8.39.12,13.1.12,0-5.22-.15-10,0-14.83.24-6.37,5.64-9.88,10.68-7.09,3,1.64,3.78,4.46,3.83,7.59.07,4.35.06,8.71.1,13.06a6.77,6.77,0,0,0,.47,1.31c2.07,0,4.38-.06,6.69,0,4.63.14,7.6,2.84,7.72,6.91s-2.69,7.17-7.32,7.21q-22.21.21-44.42,0c-5.15-.06-7.43-3-7.49-9.06-.08-8.21,0-16.42,0-24.64,0-.85,0-1.7,0-3.1h-4.16c-9.46,0-18.91,0-28.37,0-6.27,0-9-2.58-9-8.77s-.48-12.83.71-19c3-15.22,12.88-24.13,27.73-27.81,3-.75,6-1.39,9-2.19s3.53-2.42,1.23-4.26c-10.14-8.12-13.64-18.95-13-31.42.42-7.52.13-15.34,2.13-22.47C595,254,621,245.26,638.61,257.48c1,.7,2,1.37,3.41,2.31,8.22-17.11,21.58-27.05,40.47-27,18.73.06,32.1,9.77,39.92,26.32,4.8-2.14,9.12-4.71,13.79-6,19.09-5.41,39,8.09,40.81,27.89a168.58,168.58,0,0,1,.11,25.67c-.53,8.58-5,15.43-11.43,21.09-1,.88-1.46,2.35-2.17,3.54a19.26,19.26,0,0,0,3.38,1.79c5.46,1.64,11.26,2.48,16.38,4.84,13.84,6.37,20,17.93,20.36,32.86.09,3.73.15,7.47,0,11.2-.28,5.94-3,8.51-9,8.54-9.46.05-18.91,0-28.37,0Zm-108-98c-2.32,13,3,25.89,13.27,32,20,11.91,43.8-1.69,44.28-25.26.21-10.31.21-10.31-8.65-15.48a38.12,38.12,0,0,1-4.17-2.46c-2-1.55-3.55-1.37-5.54.29a38.57,38.57,0,0,1-19,9C667.53,291.62,660.83,291.89,653.89,292.51Zm135,83.43c1.68-15.33-4.35-23.92-18.56-27.24-3.86-.9-7.67-2.13-11.57-2.77-6.05-1-10.44-3.33-9.92-10.42h-8.66c.39,11.88-10.15,8.94-16.16,12.23.16.19.28.43.47.54a5.7,5.7,0,0,0,1.36.59c14.39,3.48,24.95,11.74,31.55,25,.42.85,1.52,1.93,2.32,1.94C769.39,376,779.05,375.95,788.89,375.95ZM576,376c9.7,0,19.25.09,28.79-.13,1,0,2.31-1.62,2.91-2.77a44.94,44.94,0,0,1,28.08-23.35c1.66-.5,3.3-1.09,5.4-1.79-6.83-3.31-17.15-.69-16.63-12.41h-8.38c-1.36,7.95-1.84,8.42-10,10.36-4.58,1.09-9.17,2.16-13.72,3.36C579.87,352.52,573.69,362.32,576,376ZM710.55,271.58c-1.52-15.21-16.91-26.46-32.22-24.18-14.84,2.21-26.67,16.72-24.23,29.72,13.18,1.44,25.25-.42,34.68-11,3.08-3.45,5.93-3.63,10.06-1.35C702.62,266.86,706.33,269.11,710.55,271.58Zm-108.67,27c-1,9,2.35,16,9.1,19.86A18.7,18.7,0,0,0,631.62,317c7.84-6.09,7.94-14.51,7.18-23.93C626.78,298.16,614.44,298.67,601.88,298.54Zm124.58-5.27c-2.74,9.54.46,19.52,7.5,24.36a18.89,18.89,0,0,0,21.62-.37c6-4.51,8.91-12.21,6.86-18.76C750.2,298.71,738,298.12,726.45,293.28ZM637,277.64c-2.29-7.82-11.6-12.77-20.66-11-8.11,1.6-14.82,9.62-14.21,17C613.4,285.45,629.08,282.75,637,277.64Zm90.67.14c11,6.09,22.95,6.83,35.17,6,0-8.22-6.62-15.79-14.64-17.19C739.1,265,730.4,269.69,727.65,277.79Zm-36.14,65.33H673.08c.43,9.28,6,16.34,9.31,24.38C685.52,359.36,691.47,352.44,691.51,343.11Zm17.1-6.68c3.88-1,9.75-2.35,15.52-4,.56-.16,1.2-2.72.74-3.24a58.76,58.76,0,0,0-5.91-5.31l.79,1.39Zm-52.12.1L644.83,325.1a20.88,20.88,0,0,0-4.93,3.89c-1.42,1.45-1.37,3,.93,3.57C646.55,334.05,652.29,335.47,656.49,336.53Z" transform="translate(-491.18 -192.46)"/><path class="cls-1" d="M823.67,423.83v-4.89q0-41.63,0-83.25c0-12.06,6-21.17,16.11-24.86,16.6-6,33.3,5.63,33.42,23.94q.36,58.24,0,116.47c-.09,14.92-4.93,28.54-13.59,40.74Q832,530.79,804.5,569.59c-1.81,2.56-3.89,4.64-7.24,4.49A7.18,7.18,0,0,1,791.16,564a22,22,0,0,1,2.53-4.11c17-23.95,33.76-48,51-71.75A70.8,70.8,0,0,0,858.87,444c-.43-36-.13-71.92-.15-107.89a20.83,20.83,0,0,0-.32-4.82,10.42,10.42,0,0,0-10.2-7.76,10.54,10.54,0,0,0-9.81,8.73,29.46,29.46,0,0,0-.18,4.47c0,28.62-.15,57.24.05,85.86.11,15.87-5,29.38-16,40.83s-21.79,23.24-32.85,34.7a11.73,11.73,0,0,1-6.59,3.52c-5.27.52-8.78-5.48-6.21-10.14a21.29,21.29,0,0,1,3.22-4.08q16.33-17.44,32.71-34.83c3.58-3.81,5.14-8.16,3.54-13.33-2.14-6.91-10.16-11.11-16.05-7.33-15,9.64-30.71,18.53-43.37,31.48-14.19,14.52-22,32.2-25.9,51.93-3.35,17.05-7,34-10.59,51-1.43,6.8-6.7,9.67-11.52,6.29-3.38-2.38-3.37-5.74-2.61-9.37q5.49-26.05,10.9-52.12c2.68-12.84,6.76-25.15,13.36-36.57a112.91,112.91,0,0,1,35.34-37.34q11.29-7.62,22.6-15.21c12-8,22.05-7.79,33.67.68C822.23,423,822.65,423.24,823.67,423.83Z" transform="translate(-491.18 -192.46)"/><path class="cls-1" d="M574.88,567.46c-1.61,2-2.9,4.4-4.91,5.79a5.58,5.58,0,0,1-7.75-1.28c-4.46-5.8-8.7-11.78-12.65-17.94-1.88-2.94-.66-6.58,2-8.62s6.64-2.32,8.8.39c4.63,5.81,8.77,12,13,18.11a8.85,8.85,0,0,1,.77,2.82Z" transform="translate(-491.18 -192.46)"/><path class="cls-1" d="M674.82,204.93a71.81,71.81,0,0,1,.81-7.27c.74-3.55,3.48-5.23,6.79-5.2,3.14,0,6.17,1.63,6.49,5a82.64,82.64,0,0,1,0,15.09c-.32,3.57-3.41,5.24-6.72,5.2s-6-1.81-6.65-5.38C675.13,210,675.07,207.5,674.82,204.93Z" transform="translate(-491.18 -192.46)"/><path class="cls-1" d="M729.92,214c.07,4.49-10.52,15-15,15-5.43-.09-9.1-6.31-5.85-10.68a51.08,51.08,0,0,1,10.19-10.18C723.54,204.89,729.84,208.62,729.92,214Z" transform="translate(-491.18 -192.46)"/><path class="cls-1" d="M649.72,228.66c-.25,0-.5,0-.74,0-4.22-.25-14.52-10.18-14.14-14.33a9.29,9.29,0,0,1,3.47-6.31c1.67-1.07,5.3-1.17,6.81,0a50.12,50.12,0,0,1,10.47,10.41C658.71,222.72,655.06,228.58,649.72,228.66Z" transform="translate(-491.18 -192.46)"/><path class="cls-1" d="M540.15,536.33a7.05,7.05,0,1,1,.46-14.09,7.19,7.19,0,0,1,6.93,7.31A7.08,7.08,0,0,1,540.15,536.33Z" transform="translate(-491.18 -192.46)"/><path class="cls-1" d="M682.4,427.27a7.07,7.07,0,0,1-7.25-6.9,7.19,7.19,0,0,1,14.38-.14A7.12,7.12,0,0,1,682.4,427.27Z" transform="translate(-491.18 -192.46)"/></svg>