<svg id="Слой_1" data-name="Слой 1" xmlns="http://www.w3.org/2000/svg" viewBox="0 0 383.87 383.78"><defs><style>.cls-1{fill:#612f8c;}</style></defs><title>people_star_ico</title><path class="cls-1" d="M490.67,494.89c.7-3.15,1.27-6.33,2.13-9.44,6-21.52,22.84-35.32,46.71-38.25.73-.09,1.47-.14,2.27-.22,0-.5.14-.93,0-1.15-5.54-7.92-7.48-16.78-6.87-26.29.42-6.57,0-13.4,1.68-19.66,4.61-17.36,21.45-28.56,39.23-27,17.62,1.52,32.31,15.21,33.92,33,.82,9.09.17,18.44-.9,27.54-.54,4.58-3.47,8.88-5.39,13.48h41.74a11.61,11.61,0,0,0-1-1.46c-11-11.45-15.71-25.21-15.38-40.92.28-12.86-.26-25.78.83-38.56,1.94-22.89,22.51-42.6,45.38-45.79,27.68-3.87,54.86,14.64,60.31,42.91a33.49,33.49,0,0,1,.88,6.29c0,14.86.26,29.74-.41,44.57-.53,11.74-5.9,21.78-13.76,30.46-.57.63-1.1,1.3-2,2.38h41.07c-2-6.4-5-12.76-5.64-19.34-.78-8.6-.77-17.62,1-26,3.78-18.23,21.71-30.43,39.9-28.49,19,2,33.52,17.3,34,36.24a136.58,136.58,0,0,1-1,23.13c-.74,5-3.61,9.67-5.56,14.56,3.7.62,7.79,1,11.72,2a52,52,0,0,1,38.94,49.25c.19,9.37.09,18.75,0,28.12,0,5.72-2.79,8.36-8.62,8.36q-27,0-54,0H807c0,4.56,0,8.65,0,12.73,0,6-.21,12,.07,18,.23,4.92-1.36,8.48-5.88,10.59H652.67a24.28,24.28,0,0,1-2.8-1.79c-2.37-2-3.58-4.46-2.61-7.61a7.17,7.17,0,0,1,7.27-5.37c5.55-.12,11.11,0,17.25,0-2.77-6.76-5.26-12.84-7.77-18.92q-15.89-38.54-31.8-77.07c-.7-1.69-1-3.42-3.77-3.15-30.1,3-55.18,30.22-55.44,60.51-.1,11.74,0,23.48,0,35.21,0,1.07.16,2.14.27,3.41h6.66c2.12,0,4.25-.08,6.37,0,4.86.26,8.8,4.28,7.36,8.25-.91,2.51-3.59,4.38-5.48,6.53h-24c-4.51-2.1-6-5.65-5.89-10.56.27-8.85.09-17.71.06-26.57,0-1.31-.15-2.61-.25-4.18h-4.89c-17.22,0-34.43-.15-51.64.09-4.79.07-8.49-1-10.89-5.28Q490.67,512.14,490.67,494.89Zm301.69,66c0-12.4,0-24.49,0-36.58-.09-31.3-22.65-57.21-53.69-62-3.27-.51-4.59.28-5.79,3.22q-18.74,45.86-37.69,91.64c-.46,1.12-.84,2.28-1.37,3.73ZM643.49,389.53c0,5.77,0,12.25,0,18.73.16,19.67,14.65,35.91,34.42,38.64,18.78,2.59,37.94-9.73,42.25-28.59,2-8.83,1.23-18.31,1.67-27.5a12.39,12.39,0,0,0-.37-2.46l-.47,1c-8.93-2.08-17.93-3.93-26.78-6.34-3.92-1.07-7.53-4.59-11.28-4.57s-7.62,3.44-11.66,4.53C662.32,385.4,653.22,387.28,643.49,389.53ZM590,461.71c-16.65,0-32.25-.07-47.85,0A37.25,37.25,0,0,0,508,485.48c-4.32,11.24-1.77,22.87-2.55,34.45a28,28,0,0,0,2.79.34c15.74,0,31.49,0,47.23.07,3.11,0,3.32-1.75,3.54-4,1.81-18.23,9.45-33.71,22.28-46.67C583.78,467.12,586.56,464.84,590,461.71Zm185.6.26c1,.93,1.44,1.44,2,1.88,16.83,13.79,26.73,31.37,28.79,53.13.27,2.88,1.69,3.36,4.18,3.35,15.12-.08,30.24,0,45.36,0,1.21,0,2.43-.17,3.94-.28,0-7.05,0-13.78,0-20.51-.1-21.42-16.32-37.69-37.7-37.78-14.24-.06-28.49,0-42.73,0C778.37,461.71,777.31,461.85,775.62,462ZM682.12,548l1.1,0L718.72,462H690c0,5.54,0,10.78,0,16,0,5.55-2.86,9.09-7.25,9.13s-7.33-3.52-7.36-9c0-5.34,0-10.67,0-16.15H646.61ZM596,417.46h-.15c0-2.5,0-5,0-7.49-.23-11.54-9.49-21.65-20.58-22.5-12.9-1-23.78,6.83-25.43,19a84,84,0,0,0-.37,19.4c1.2,12.1,10.68,20.85,21.92,21.15,12.09.33,21.87-7.3,24.09-19.15C596.09,424.51,595.84,420.94,596,417.46Zm173.35-.37h.17c0,2.37,0,4.75,0,7.12.19,11.7,9.42,21.84,20.73,22.8,12.59,1.07,23.67-7,25.29-19.29a82.49,82.49,0,0,0,.32-19.39c-1.29-12.2-10.59-20.62-22-21-11.92-.34-21.6,7.17-23.87,18.9C769.27,409.78,769.52,413.48,769.34,417.08ZM721.88,373.5c-.39-14.33-6.17-25.47-17.86-32.94-13.86-8.86-28.37-8.94-42.34-.22-11.93,7.45-17.77,18.65-18.24,33.18,1.88,0,3.35.1,4.8,0A62.18,62.18,0,0,0,677.42,364c3.57-2.28,6.93-2.33,10.47,0a50,50,0,0,0,5.86,3.3C702.52,371.36,711.65,373.83,721.88,373.5Z" transform="translate(-490.67 -192.11)"/><path class="cls-1" d="M618.92,575.89c-3.38-1.92-6.35-4.17-5.61-8.68a7.42,7.42,0,0,1,6.73-6.07,7.33,7.33,0,0,1,7.26,5.36c1,3.49-.41,6.05-3.2,8-.7.49-1.45.91-2.18,1.36Z" transform="translate(-490.67 -192.11)"/><path class="cls-1" d="M649,223.36c3.37,0,6.75-.11,10.12,0,2.29.1,3.34-.85,4-3,1.73-5.73,3.61-11.41,5.49-17.09,2.39-7.21,7.53-11.26,14.17-11.23s11.7,4.05,14.1,11.31c1.83,5.56,3.7,11.12,5.36,16.73.72,2.46,2,3.32,4.55,3.26,6.12-.16,12.24-.11,18.36,0,7.09.11,12.06,3.56,14.12,9.61,2.17,6.38.2,12.4-5.67,16.8q-7.5,5.61-15.18,11c-1.84,1.28-2.25,2.48-1.46,4.66,2.07,5.74,3.89,11.58,5.71,17.41,2.19,7,.33,13.12-5,17-5.54,4-11.49,3.83-17.69-.57-5-3.54-10-7.11-14.81-10.84-1.84-1.42-3.11-1.28-4.88.07-4.86,3.72-9.82,7.3-14.81,10.83-6.16,4.36-12.21,4.46-17.69.44s-7.14-10-4.93-17c1.79-5.71,3.57-11.43,5.62-17,.91-2.48.32-3.81-1.76-5.23q-7.72-5.29-15.18-11c-5-3.81-7.16-8.85-5.64-15.14,1.35-5.61,4.89-9.51,10.46-10.54,4.1-.76,8.46-.15,12.7-.15Zm58.82,63.73.79-.62q-3.47-10.62-6.94-21.23c-2.42-7.43-2-8.72,4.2-13.23,5.46-4,10.92-7.9,16.36-11.88.71-.52,1.29-1.2,2.67-2.51-9.38,0-17.71,0-26,0-4.58,0-6.5-1.42-8-5.83-2.22-6.62-4.32-13.27-6.5-19.9-.39-1.2-.9-2.35-1.72-4.47-.81,2.22-1.26,3.35-1.64,4.5-2.17,6.63-4.28,13.28-6.5,19.89-1.48,4.39-3.41,5.78-8,5.81-7.37,0-14.74,0-22.11,0-1,0-2,.18-4.11.39l20,14.5c5.14,3.74,5.73,5.59,3.73,11.77-2.14,6.64-4.32,13.27-6.44,19.92a32.71,32.71,0,0,0-.63,3.39c7.09-5.17,13.43-9.79,19.77-14.41,4.83-3.51,7.23-3.49,12.12.06Z" transform="translate(-490.67 -192.11)"/></svg>