<svg id="Слой_1" data-name="Слой 1" xmlns="http://www.w3.org/2000/svg" viewBox="0 0 438.47 301.39"><defs><style>.cls-1{fill:#612f8c;}</style></defs><title>people_teach_ico</title><path class="cls-1" d="M902.58,523.8a6.75,6.75,0,0,0-1,1.48c-1.91,6-6.54,9.6-12.8,9.63-11.65.06-23.3,0-35,0-12.09,0-24.18,0-36.27,0-11.2,0-18.94-8.32-17.84-19.45.77-7.76,5.53-12.53,12.74-15,7-2.36,14-4.65,21.06-7,8.43-2.77,16.86-5.57,25.3-8.29a7.61,7.61,0,0,0,5.23-5.69c2.89-10.58,5.76-21.17,8.67-31.75.95-3.44,2-6.85,3-10.28a18.34,18.34,0,0,0,.35-2.37l-.7-.26c-1.44,2.31-2.89,4.61-4.31,6.93-5.67,9.29-11.39,18.56-17,27.91-2.47,4.13-6.34,5.64-10.73,6-12.29,1.07-24.59,1.88-36.88,3-7.55.68-14.2-4.69-12.65-13.7.76-4.42,5.33-8.13,10.37-8.55,10.45-.87,20.91-1.72,31.35-2.71a4.36,4.36,0,0,0,2.95-1.67c6.85-11,13.58-22.11,20.32-33.2a15.42,15.42,0,0,0,.86-2.21l-21.91,22-1-.51c0-2.74-.07-5.48,0-8.22.16-5.23-.06-10.54.75-15.68,1-6.51,7-13,14.63-13,6.91,0,13.82-.56,20.73-.57,11.12,0,19.14,7.76,19.19,18.83.09,23.83.14,47.66-.18,71.48-.12,8.76-2.63,12.77-10.85,15.1a4.74,4.74,0,0,0-2.18,1.4c.93.14,1.85.35,2.79.4,3.14.18,6.32.07,9.42.52,5.44.78,8.87,4.08,10.51,9.3a11.32,11.32,0,0,0,1,1.83Z" transform="translate(-464.11 -233.56)"/><path class="cls-1" d="M500.41,492.93c-1.71-.62-3.41-1.25-5.12-1.86-4.3-1.53-8.57-3.14-11.38-7A20.18,20.18,0,0,1,480,472.33q-.47-36.66-.79-73.32c-.1-13.67-.24-27.34.09-41,.34-14.16,12.14-26.42,26.09-26.86,11.18-.35,22.42-.35,33.59.25,10.76.58,21.46,10.52,23.81,21a9,9,0,0,1,0,1.59l-38.8-8.7-.33.88c2.86,1.45,5.7,2.94,8.58,4.34,15.65,7.64,31.33,15.22,47,22.91a6.12,6.12,0,0,0,6.25-.11c14.52-7.73,29.05-15.44,43.73-22.86,7.74-3.91,17.84-.27,21.91,7.36,4.3,8.05,1.59,18.47-6.34,22.84-11.15,6.13-22.46,12-33.72,17.88-7.17,3.77-14.33,7.55-21.58,11.15-5.46,2.7-10.9,1.61-16.11-.92-13.87-6.74-27.7-13.56-41.55-20.34-4.74-2.32-9.5-4.59-14.25-6.88l-.51.66c1.82,1.7,3.6,3.44,5.45,5.09q19.26,17.11,38.57,34.17a5,5,0,0,1,1.84,4.28c-.35,13.48-.54,27-.93,40.45-.08,2.67.87,3.81,3.39,4.62q18.28,5.85,36.45,12.08a26.45,26.45,0,0,1,17.69,30.88c-2.37,11.62-12,20.85-24.19,21-37.5.31-75,.19-112.5,0-8.74,0-16.77-7.51-18.24-16-1.79-10.44,2.14-18.61,11.76-23.1,2.87-1.34,6.39-1.53,9.65-1.72,4.7-.28,9.44-.07,14.16-.07Z" transform="translate(-464.11 -233.56)"/><path class="cls-1" d="M770.88,378.15,749,399.74c0-7.11-.19-13.81.1-20.5a17.75,17.75,0,0,1,2.16-7.41c3.39-6.24,9.05-9.36,16-9.73,6.29-.33,12.62-.27,18.92,0,8.52.31,16.26,6.41,17.49,14.85.79,5.41.61,11,.86,16.46.05,1.1.13,2.2.22,3.68,6.59-2.24,12.85-4.32,19-6.56a3.07,3.07,0,0,0,1.54-2.22c.21-2.25.07-4.53.07-6.59l12.19,14.48a7.05,7.05,0,0,0-2,1,26.85,26.85,0,0,0-9.44,17,134.64,134.64,0,0,0-.77,15.93c0,2.11-.57,3-2.81,2.89-5-.14-10,.11-15-.1-2.77-.12-3.55,1-3.41,3.51.12,2.1,0,4.21,0,6.31.07,1.94-.74,2.93-2.69,3.11-10.92,1-18.65,10.58-19.14,20-.61,11.75,6.29,21.27,17.18,23.68,2.69.6,5.57.31,8,.42-3.14,2-6.57,4.21-10,6.33a3.81,3.81,0,0,1-1.81.14c-22.43,0-44.85,0-67.28,0-7.58,0-15.47-5.73-16.78-15.68-1-7.3,4.1-15.77,11.3-18.21,8.5-2.88,17-5.63,25.55-8.47,7.75-2.59,15.56-5.06,23.19-8a8.52,8.52,0,0,0,4.57-4.5c2.14-6.25,3.71-12.69,5.44-19.08,1.61-6,3.16-11.94,4.72-17.91.73-2.8,1.42-5.62,2.13-8.43l-.68-.29c-.73,1-1.51,2-2.17,3.12C779.49,409.27,773.07,419.54,767,430c-2.89,5-7.14,6.74-12.5,7.13-11.34.82-22.68,1.66-34,2.76-3.68.36-7.05.48-10.19-1.84-3.37-2.49-5.28-5.79-4.62-9.88.76-4.69,3-8.59,8.28-9.55,3-.55,6-.93,9-1.22,8.27-.8,16.55-1.44,24.8-2.33A5,5,0,0,0,751,413c5.74-9.23,11.34-18.56,17-27.86,1.28-2.11,2.5-4.26,3.75-6.4Z" transform="translate(-464.11 -233.56)"/><path class="cls-1" d="M582.56,278.84c-.8,22-16.83,37.89-38,38-22,.1-38.31-16.9-38.26-38.11.05-22,17.06-38.26,38.25-38.1C566.17,240.77,582,257.41,582.56,278.84Z" transform="translate(-464.11 -233.56)"/><path class="cls-1" d="M643.21,399.28c3.72-2.18,7.32-4.1,10.72-6.31,7.61-5,12-12,13.92-20.93,3.56-16.67-7.7-33.08-22.6-37.16-3.25-.89-6.64-1.25-10.31-1.92.47-1.68.93-3.57,1.52-5.41,1.25-3.9,2.6-7.76,3.85-11.66.87-2.71,2.68-3.92,5.38-3.07,7.81,2.44,15.58,5,23.35,7.55,4.55,1.49,9.07,3.07,13.62,4.56a16.13,16.13,0,0,0,2.84.26c-1.07-1.33-1.69-2.17-2.38-3q-8.81-10-17.62-20c-1.47-1.68-2.2-3.57-1-5.73a3.86,3.86,0,0,1,4.37-2.17,6.14,6.14,0,0,1,3.07,1.74q13,14.5,25.88,29.13c2,2.26,1.25,4.82.47,7.2-4.7,14.31-9.51,28.57-14.24,42.87-3.28,9.91-6.46,19.86-9.71,29.78-.89,2.72-2.85,3.77-5.53,2.89-8.1-2.65-16.18-5.36-24.27-8.06C644.14,399.72,643.78,399.53,643.21,399.28Z" transform="translate(-464.11 -233.56)"/><path class="cls-1" d="M888.79,363.69a28.31,28.31,0,1,1-56.61-.67,28.57,28.57,0,0,1,28.3-27.53C875.38,335.36,888.94,347.86,888.79,363.69Z" transform="translate(-464.11 -233.56)"/><path class="cls-1" d="M744.15,324.93a28.33,28.33,0,0,1,29.69-28,28.36,28.36,0,0,1-1.18,56.69C756,353.56,744.42,340.76,744.15,324.93Z" transform="translate(-464.11 -233.56)"/><path class="cls-1" d="M876.69,261.59c-.56,15.4-11.47,28.35-28.41,28.51a27.77,27.77,0,0,1-28.49-28c-.11-16.16,12.08-28.31,28-28.52S875.86,245.49,876.69,261.59Z" transform="translate(-464.11 -233.56)"/><path class="cls-1" d="M879.76,330.26c-10.27-5.33-20.62-6.69-31.4-3s-18.24,10.72-23.73,20.6c0-8.21,0-16.41,0-24.62,0-3.4-.28-6.92.46-10.18,2-8.59,9.31-14.06,18.63-14.29,5.25-.13,10.52.16,15.76-.12,10.22-.54,19.73,6.94,20.23,17.29C880,320.51,879.76,325.14,879.76,330.26Z" transform="translate(-464.11 -233.56)"/></svg>