<svg id="Слой_1" data-name="Слой 1" xmlns="http://www.w3.org/2000/svg" viewBox="0 0 379.89 379.89"><defs><style>.cls-1{fill:#fff;}</style></defs><title>phone_ico</title><path class="cls-1" d="M807.5,444.33c-.32-.66-.62-1.33-.92-2a38.29,38.29,0,0,0-2.68-5.21c-5-7.8-11.77-13.81-17.71-18.83-12.86-10.88-23.52-18.14-34.56-23.54a42.55,42.55,0,0,0-9.22-3.35c-5.23-1.18-12.92-.67-19.85,8.48-2.86,3.77-5.45,7.73-8,11.57-1.34,2-2.73,4.17-4.12,6.2-1.83,2.68-3.82,5.35-5.76,7.95-.73-.39-1.43-.69-2.08-1-.45-.2-.91-.39-1.35-.62-14-7.28-27.22-17.76-40.34-32-9.54-10.37-16.6-20.4-21.58-30.67-.25-.51-.67-1.38-1-2.07.63-.48,1.46-1,1.86-1.32,2.6-1.78,5.33-3.54,8-5.23,2.91-1.87,5.92-3.8,8.85-5.83a79,79,0,0,0,10.41-8.39,17.65,17.65,0,0,0,4.31-19.9A94.61,94.61,0,0,0,666.5,307a182.87,182.87,0,0,0-23.29-32.09c-6.85-7.68-13.84-14.87-23.94-18.47l-.81-.29h-5.67l-.66.19c-17.35,4.87-31.41,16-43,34-2.74,4.26-4.48,9.3-5.47,15.86l-.06.37v3.58l0,.45c.12,1.29.22,2.59.32,3.88.23,2.86.47,5.82.84,8.77a153.52,153.52,0,0,0,17.3,53.16c26.25,49.1,64.49,86,113.65,109.67a144,144,0,0,0,37.71,12.23c3.55.62,7.13,1.1,10.6,1.56l4.69.64,11,0,.65-.18c19.51-5.36,33.82-18.37,45.06-41a26.63,26.63,0,0,0,1.83-5.39c.16-.63.32-1.27.51-1.89l.22-.71v-6Zm-53.17,34.4a121.24,121.24,0,0,1-43.08-9.64c-31.85-13.29-59.51-34.37-84.55-64.47-15.88-19.08-27.12-38.46-34.37-59.24a120,120,0,0,1-6.82-35.64c-.11-3.39.94-6.59,3.31-10.08a61,61,0,0,1,24.15-21,4,4,0,0,1,1.66-.52,2.92,2.92,0,0,1,1.81.88c8.08,6.53,14.51,14.49,19.21,20.69,5.26,6.95,10.66,14.52,14.52,22.79l.27.59c.2.43.41.88.6,1.29-.51.41-1.13.88-1.61,1.24-3.33,2.53-6.88,4.76-10.63,7.12-1.44.91-2.88,1.81-4.31,2.73l-.55.36c-5,3.22-10.14,6.54-14.08,11.86a17.67,17.67,0,0,0-2.11,18.52c7.17,16.3,18.26,31.79,33.89,47.37,13,13,26.19,22.78,40.17,29.91,2.45,1.25,4.9,2.37,7.26,3.32,7,2.79,13.92,1.18,19.6-4.54a77.19,77.19,0,0,0,8.42-10.44c2-2.94,4-6,5.84-8.89,1.61-2.51,3.27-5.11,5-7.59.74-1.08,1.31-1.88,1.72-2.37.57.24,1.43.66,2.55,1.25a158.24,158.24,0,0,1,41.14,31.21c3.1,3.27,2.9,5,1.23,7.82-6.54,11.07-13.71,18.58-22.57,23.64a12,12,0,0,1-7,1.86Z" transform="translate(-492.86 -194.33)"/><path class="cls-1" d="M682.81,574.22c-104.74,0-189.94-85.21-189.94-189.94s85.21-189.94,189.94-189.94,189.94,85.21,189.94,189.94S787.54,574.22,682.81,574.22Zm0-357.89c-92.6,0-167.94,75.34-167.94,167.94S590.2,552.22,682.81,552.22s167.94-75.34,167.94-167.94S775.41,216.33,682.81,216.33Z" transform="translate(-492.86 -194.33)"/></svg>