<svg id="Слой_1" data-name="Слой 1" xmlns="http://www.w3.org/2000/svg" viewBox="0 0 377.09 377.08"><defs><style>.cls-1{fill:#039ae4;}.cls-2{fill:#35aee9;}.cls-3{fill:#8cd1f2;}.cls-4{fill:#5ebfed;}.cls-5{fill:#7ecbf1;}.cls-6{fill:#fefefe;}</style></defs><title>telegr_logo</title><path class="cls-1" d="M673.14,573.54h-6.62c-4.85-.93-9.8-.87-14.7-1.23-12-.89-23.26-4.46-34.39-8.54A182.91,182.91,0,0,1,563,532.88c-19.5-16.19-35.76-35.13-47.76-57.62A191.85,191.85,0,0,1,496,421.47a111,111,0,0,1-1.52-16.08c-.84-17.54-1.07-35.1,1-52.55,1.87-15.43,6.94-30.05,13.13-44.26A183.83,183.83,0,0,1,538.89,261a190.21,190.21,0,0,1,107.68-62.4,116.43,116.43,0,0,1,15.82-1.48c17.4-.88,34.83-1,52.15.94,15.09,1.7,29.4,6.61,43.3,12.52A181.14,181.14,0,0,1,807.66,242c15,13.33,28.06,28.36,38.26,45.76,10.62,18.11,18.51,37.29,22.75,57.89,1.47,7.13,1.38,14.42,2,21.64.07.83-.27,1.72.36,2.47V372c-.62.65-.27,1.47-.37,2.21.1.74-.26,1.55.37,2.21v19.12a1.71,1.71,0,0,0,0,2.21v3.68c-.87,3.81-.78,7.72-1,11.58-.78,15.2-5.38,29.45-11,43.34a181.79,181.79,0,0,1-28.43,48.28c-16.13,19.39-34.87,35.68-57.19,47.7a188.39,188.39,0,0,1-50.82,18.81c-7.23,1.52-14.62,1.43-21.94,2-.83.07-1.72-.27-2.47.36h-6.62a4.08,4.08,0,0,0-3.68,0h-10.3A5.8,5.8,0,0,0,673.14,573.54Z" transform="translate(-493.91 -196.46)"/><path class="cls-2" d="M673.14,573.54c1.47-1.12,2.94-.87,4.41,0Z" transform="translate(-493.91 -196.46)"/><path class="cls-2" d="M687.85,573.54c1.23-.8,2.45-1,3.68,0Z" transform="translate(-493.91 -196.46)"/><path class="cls-3" d="M870.38,374.15c0-.78-.42-1.67.62-2.15v2.21Q870.62,375,870.38,374.15Z" transform="translate(-493.91 -196.46)"/><path class="cls-4" d="M870.38,374.15a3,3,0,0,1,.62.06v2.21A2.3,2.3,0,0,1,870.38,374.15Z" transform="translate(-493.91 -196.46)"/><path class="cls-5" d="M871,397.75c-1.07-.74-.82-1.47,0-2.21Z" transform="translate(-493.91 -196.46)"/><path class="cls-6" d="M648.28,467.33c.95-13.81,2-27.62,2.77-41.44.14-2.31,1.43-3.49,2.88-4.8l79.67-71.95c1.73-1.56,3.46-3.12,5.13-4.74.66-.65,1.56-1.38.91-2.5S738,341,737,341.11c-2.17.16-3.9,1.39-5.65,2.49Q694.5,366.78,657.67,390c-10,6.33-20.12,12.63-30.12,19a5.8,5.8,0,0,1-5.45.74c-14.33-4.58-28.72-9-43.06-13.49-3.39-1.07-7.43-2.12-7.82-6.25-.41-4.37,3.48-6.32,6.85-7.66,15.33-6.13,30.75-12,46.15-18Q692,338.2,759.77,312.07a33.1,33.1,0,0,1,4.53-1.48c5.72-1.3,10.27,1.86,11.16,7.64a23.19,23.19,0,0,1-.42,8.4q-15.27,72-30.56,144c-2.53,11.9-9.52,14.57-19.33,7.35-14.11-10.38-28.24-20.74-42.27-31.22-2.06-1.54-3.18-1.61-5.08.3-6.74,6.78-13.71,13.32-20.59,20a16.53,16.53,0,0,1-4.36,3.33C648.78,472.26,648,471.72,648.28,467.33Z" transform="translate(-493.91 -196.46)"/></svg>