<svg id="Слой_1" data-name="Слой 1" xmlns="http://www.w3.org/2000/svg" viewBox="0 0 385 384.99"><defs><style>.cls-1{fill:#fff;}</style></defs><title>user_ico</title><path class="cls-1" d="M490.75,394.25q0-12,0-24c.58-4.69,1.06-9.39,1.74-14.07,6-41.71,23.58-77.84,53.05-108,28.79-29.43,63.53-47.86,104.14-55,7-1.23,14-2,21.07-2.95h24c2.46.31,4.91.65,7.37.91,38,4.08,72,17.92,101.53,42.15,36.81,30.22,59.71,68.86,68.15,115.85,1.25,7,2,14.05,2.95,21.08v24c-.82,6.3-1.41,12.63-2.5,18.88-8.72,50.06-33,91-73.4,121.74-42,32-89.72,44.38-142.06,37.55-38.14-5-71.77-20.56-100.61-46.07-33.52-29.66-54.43-66.56-62.45-110.65C492.45,408.61,491.73,401.41,490.75,394.25Zm125.92-19.87c-29.3-38.65-20.09-87.18,9.15-113.84,30-27.39,74.65-29.83,106.87-5.76,16.1,12,26.85,27.82,31.56,47.34,6.37,26.37.65,50.42-15.53,72.22a143.43,143.43,0,0,1,48.53,41,146.18,146.18,0,0,1,26.41,57.63c41.78-61.82,38.47-159.27-33.47-219.63-70.06-58.79-175.37-51-236.06,21.08C499,339.81,508.38,425.82,542,472.53a145.2,145.2,0,0,1,74.71-98.16Zm66.8,176c3.47-.21,8-.43,12.44-.78,38.9-3.08,72.43-18.33,101.3-44.41,4.17-3.77,5.76-7.44,5.08-13.21-5.31-45.13-28.18-77.8-68.6-98.38-2.71-1.38-4.71-1.28-7.46.31q-43.7,25.13-87.42-.25c-2.14-1.24-3.76-1.62-6.11-.45q-64.15,32-69.69,103.4a7.31,7.31,0,0,0,2,5.12C597.69,533.54,637,549.43,683.47,550.39Zm59.28-228a60,60,0,1,0-60.3,59.89A60.1,60.1,0,0,0,742.75,322.36Z" transform="translate(-490.25 -189.75)"/><path class="cls-1" d="M684.15,574.74a211.8,211.8,0,0,1-27.42-1.82c-37.88-4.94-71.82-20.48-100.87-46.19-33.56-29.69-54.63-67-62.61-110.94-.88-4.87-1.51-9.87-2.12-14.7-.28-2.26-.57-4.52-.88-6.78V370.25c.19-1.55.36-3,.53-4.52.37-3.16.75-6.42,1.21-9.62,6.06-41.95,24-78.37,53.19-108.25,28.84-29.48,64-48,104.41-55.16,4.79-.84,9.69-1.47,14.42-2.08,2.22-.28,4.44-.57,6.66-.88h24.07l2.42.3c1.67.22,3.34.43,5,.61C740.6,194.8,774.84,209,804,232.93c36.94,30.33,59.93,69.41,68.33,116.15.86,4.78,1.48,9.68,2.08,14.42.28,2.23.56,4.45.87,6.68v24.07c-.26,2.05-.5,4-.73,6-.5,4.25-1,8.64-1.77,12.93-8.79,50.45-33.54,91.52-73.59,122.05C764.74,561.52,726.15,574.74,684.15,574.74ZM491.25,394.22c.31,2.25.59,4.5.88,6.76.61,4.82,1.23,9.8,2.11,14.65,7.94,43.69,28.9,80.82,62.29,110.37,28.9,25.57,62.66,41,100.34,45.95,52.45,6.84,100.13-5.76,141.69-37.46C838.39,504.1,863,463.24,871.76,413c.74-4.26,1.26-8.64,1.76-12.87.24-2,.47-4,.73-6V370.25c-.3-2.16-.58-4.39-.87-6.62-.6-4.73-1.22-9.62-2.07-14.37-8.35-46.5-31.23-85.38-68-115.56-29-23.79-63-37.93-101.26-42-1.68-.18-3.35-.4-5-.61l-2.35-.3H670.75c-2.15.3-4.38.59-6.6.87-4.73.6-9.62,1.23-14.38,2.07-40.23,7.09-75.18,25.55-103.87,54.87-29.08,29.73-46.88,66-52.92,107.69-.46,3.19-.84,6.44-1.21,9.59q-.26,2.23-.53,4.46ZM683.48,550.89h0c-47.2-1-86.05-16.93-118.78-48.79a7.8,7.8,0,0,1-2.17-5.52c3.79-47.63,27.33-82.55,70-103.81,2.59-1.29,4.44-.78,6.58.46,28.83,16.75,58.07,16.83,86.92.24,2.94-1.69,5.09-1.78,7.94-.32,40.41,20.58,63.58,53.81,68.87,98.77.68,5.8-.79,9.62-5.24,13.64C768.17,532.11,734,547.1,696,550.11c-3.14.25-6.29.43-9.07.58l-3.38.2ZM635.36,393a5.4,5.4,0,0,0-2.43.65c-42.3,21.09-65.65,55.74-69.42,103a6.79,6.79,0,0,0,1.87,4.72c32.53,31.67,71.15,47.54,118.08,48.51l3.37-.2c2.78-.16,5.92-.34,9-.58,37.81-3,71.79-17.89,101-44.28,4.18-3.77,5.55-7.36,4.92-12.78-5.24-44.61-28.23-77.58-68.33-98-2.53-1.29-4.36-1.21-7,.3-29.18,16.78-58.76,16.69-87.92-.25A6.37,6.37,0,0,0,635.36,393Zm188.06,81.14-.25-1.14a146.65,146.65,0,0,0-26.32-57.44,143.88,143.88,0,0,0-48.37-40.81l-.52-.27.35-.47c16.42-22.11,21.62-46.27,15.45-71.8-4.62-19.12-15.18-35-31.38-47.06-31.84-23.79-76.51-21.38-106.23,5.73-27.2,24.8-39.62,72.9-9.09,113.17l.36.47-.52.27a144.7,144.7,0,0,0-74.45,97.82l-.24,1.1-.66-.91C506.9,424.63,499.4,338.58,553.75,274c29.28-34.76,70.07-56,114.86-59.78a166.63,166.63,0,0,1,121.91,38.64C824,281,845.13,319.9,850.07,362.5c4.54,39.18-4.93,79.53-26,110.7Zm-74-100A144.81,144.81,0,0,1,797.65,415a147.49,147.49,0,0,1,26.24,56.69c39.82-60,38-157.55-34-218-70.32-59-175.9-49.58-235.36,21-53.69,63.74-46.67,148.58-12.8,196.64a145.69,145.69,0,0,1,74.2-97.12c-30.44-40.65-17.85-89,9.56-114a85.7,85.7,0,0,1,52.93-22.31A83.76,83.76,0,0,1,733,254.37c16.39,12.25,27.08,28.27,31.75,47.62C770.94,327.65,765.8,351.93,749.47,374.16Zm-66.81,8.59h-.21a60.5,60.5,0,1,1,60.8-60.39h0a60.62,60.62,0,0,1-60.59,60.39Zm.2-120a59.5,59.5,0,0,0-.41,119h.21a59.5,59.5,0,0,0,.39-119Z" transform="translate(-490.25 -189.75)"/></svg>