<svg id="Слой_1" data-name="Слой 1" xmlns="http://www.w3.org/2000/svg" viewBox="0 0 378.79 378.42"><defs><style>.cls-1{fill:#2e77a4;}.cls-2{fill:#fff;}</style></defs><title>vk_logo</title><path class="cls-1" d="M492.79,394.22v-3a35.88,35.88,0,0,0,.89-5.4,171.84,171.84,0,0,1,6.63-43.72A188.94,188.94,0,0,1,719.85,207.28c43.67,8.63,80,30.52,108.37,64.93q45.45,55.19,43.25,127a181.44,181.44,0,0,1-5,38c-9.68,39.18-29.67,72.15-60.2,98.55C770.73,566.49,729.14,581.49,682.4,582a169.38,169.38,0,0,1-42.14-4.87q-83.46-20.44-124.73-95.74a177.45,177.45,0,0,1-21.87-82.5A28.2,28.2,0,0,0,492.79,394.22ZM772,476.61v.2c1.48,0,3,0,4.45,0,5.91-.23,11.88,0,17.71-.87,8.42-1.21,11.2-7.21,6.91-14.56a67.47,67.47,0,0,0-8.61-12c-7.73-8.32-15.93-16.19-23.82-24.36s-8.34-10.75-1.72-20.08c8.07-11.38,16.78-22.31,24.64-33.83a108.79,108.79,0,0,0,10.56-19.83c2.83-6.89-.2-10.69-7.67-10.73-13.46-.09-26.93,0-40.39,0-7.87,0-9.39,1-12.36,8.45a187.7,187.7,0,0,1-22.4,41.21,76.51,76.51,0,0,1-9.84,11c-3.38,3.13-6.84,2.2-8.38-2.18a31,31,0,0,1-1.81-10.1c0-13.46.5-26.91.6-40.37.06-8.15-3.08-11.88-11-13.2a118.1,118.1,0,0,0-41.59.2c-3.52.67-7,3-9.86,5.3s-2.27,3.81,1.41,4.8c6,1.63,10.34,5,10.8,11.58.67,9.58,1.32,19.19,1.23,28.77,0,4.7-1.46,9.47-2.83,14-1.09,3.61-3.86,4.44-7,2.43a22.71,22.71,0,0,1-5.54-4.82c-11.73-14.67-20.58-31-27.85-48.27-3-7.22-6.41-9.49-14.18-9.4-10.62.13-21.24.35-31.86.53-7.79.14-10.41,4-7.23,11,13,29,27.87,57,46.93,82.57,8.16,11,17.51,20.76,29,28.33,18,11.83,37.91,15.47,59,14.18,7.09-.43,10.08-3.94,10.6-11.25a69.46,69.46,0,0,1,1.53-11.69c2.67-10.8,8.88-12.62,16.91-4.92,4.36,4.18,8.23,8.86,12.32,13.33,6,6.52,12.17,13.12,21.39,14.33C758.61,477.3,765.36,476.61,772,476.61Z" transform="translate(-492.79 -203.58)"/><path class="cls-2" d="M772,476.61c-6.66,0-13.42.69-20-.17-9.22-1.21-15.41-7.8-21.39-14.33-4.09-4.46-8-9.15-12.32-13.33-8-7.7-14.24-5.88-16.91,4.92a69.46,69.46,0,0,0-1.53,11.69c-.52,7.31-3.51,10.82-10.6,11.25-21.09,1.28-41-2.35-59-14.18-11.51-7.58-20.85-17.38-29-28.33-19.06-25.57-33.9-53.57-46.93-82.57-3.18-7.07-.55-10.9,7.23-11,10.62-.19,21.24-.41,31.86-.53,7.77-.09,11.14,2.18,14.18,9.4,7.27,17.25,16.12,33.6,27.85,48.27a22.71,22.71,0,0,0,5.54,4.82c3.17,2,5.94,1.18,7-2.43,1.37-4.56,2.79-9.34,2.83-14,.09-9.59-.56-19.2-1.23-28.77-.46-6.55-4.78-10-10.8-11.58-3.68-1-4.31-2.44-1.41-4.8s6.34-4.64,9.86-5.3a118.1,118.1,0,0,1,41.59-.2c7.93,1.32,11.07,5,11,13.2-.1,13.46-.58,26.91-.6,40.37a31,31,0,0,0,1.81,10.1c1.53,4.38,5,5.31,8.38,2.18a76.51,76.51,0,0,0,9.84-11A187.7,187.7,0,0,0,741.72,349c3-7.44,4.49-8.44,12.36-8.45,13.46,0,26.93-.09,40.39,0,7.47,0,10.5,3.84,7.67,10.73a108.79,108.79,0,0,1-10.56,19.83c-7.86,11.52-16.57,22.45-24.64,33.83-6.61,9.33-6.3,11.76,1.72,20.08s16.09,16,23.82,24.36a67.47,67.47,0,0,1,8.61,12c4.29,7.36,1.51,13.36-6.91,14.56-5.83.83-11.8.64-17.71.87-1.48.06-3,0-4.45,0Z" transform="translate(-492.79 -203.58)"/></svg>