<svg id="Слой_1" data-name="Слой 1" xmlns="http://www.w3.org/2000/svg" viewBox="0 0 374.77 374.77"><defs><style>.cls-1{fill:#00a900;}.cls-2{fill:#fff;}</style></defs><title>whatsup_logo</title><path class="cls-1" d="M668.17,192.15h13.19c1.55.27,3.09.58,4.65.8,11,1.58,22.13,2.23,32.82,4.84,97.06,23.73,159.55,118.92,139.39,219.14-19.33,96.12-109.72,160.76-207,148.5-33.72-4.25-64.29-16.7-91-37.84-41.31-32.66-65.35-75.13-71.46-127.57-.53-4.58-1-9.16-1.54-13.74V373.1c.28-1.91.62-3.82.84-5.73.84-7.13,1.22-14.34,2.52-21.39,6.4-34.48,21.14-65,44.69-91,31.88-35.19,71.46-55.79,118.77-61.23C658.76,193.19,663.47,192.68,668.17,192.15ZM792,378.47c-1-7.84-1.46-15.8-3.15-23.49-14-63.5-72.94-102.59-136.77-90.44-51.34,9.77-91.84,54.06-93.89,110.82a115.69,115.69,0,0,0,11.2,53.51,10.17,10.17,0,0,1,.63,5.89c-3.6,18.14-7.42,36.23-11.11,54.35-1.34,6.61,1.18,9,7.71,7.42,17.64-4.17,35.26-8.43,52.93-12.45a11.11,11.11,0,0,1,6.51.69c22.11,9.79,45,12.88,68.88,8.77C750.43,484,791.49,435.16,792,378.47Z" transform="translate(-487.23 -192.15)"/><path class="cls-2" d="M792,378.47c-.5,56.69-41.57,105.54-97,115.07-23.91,4.11-46.77,1-68.88-8.77a11.11,11.11,0,0,0-6.51-.69c-17.67,4-35.29,8.27-52.93,12.45-6.54,1.55-9.06-.81-7.71-7.42,3.68-18.12,7.5-36.21,11.11-54.35a10.17,10.17,0,0,0-.63-5.89,115.69,115.69,0,0,1-11.2-53.51c2-56.76,42.55-101,93.89-110.82C715.9,252.38,774.82,291.48,788.84,355,790.54,362.66,791,370.63,792,378.47Zm-201.4,85.44c1.61-.27,2.56-.37,3.47-.59,8.41-2,16.87-3.75,25.19-6.06a16.5,16.5,0,0,1,13.13,1.48c18.24,9.75,37.75,12.71,58.09,9.28,49.72-8.4,82.81-56.58,73.36-106.57-11.71-62-83.54-93.29-136.94-59.72a90.52,90.52,0,0,0-41.47,92.42,91.52,91.52,0,0,0,10.47,29.45,12.41,12.41,0,0,1,1.14,9.36C594.83,443,592.82,453.14,590.59,463.91Z" transform="translate(-487.23 -192.15)"/><path class="cls-1" d="M590.59,463.91c2.22-10.77,4.24-20.89,6.44-31a12.41,12.41,0,0,0-1.14-9.36,91.52,91.52,0,0,1-10.47-29.45,90.52,90.52,0,0,1,41.47-92.42c53.41-33.56,125.23-2.24,136.94,59.72,9.45,50-23.64,98.17-73.36,106.57-20.34,3.44-39.85.48-58.09-9.28a16.5,16.5,0,0,0-13.13-1.48c-8.32,2.31-16.78,4.08-25.19,6.06C593.15,463.53,592.2,463.64,590.59,463.91ZM705.19,436c3.71-.59,7.51-.86,11.11-1.83,8.83-2.38,14.22-9.06,19.06-16.2,4.29-6.33,1.92-12.61-5.46-14.79-4.78-1.41-9.81-2.21-14.37-4.11-8.23-3.44-14.63-2.12-20.26,5-3.21,4.09-6.51,4.4-11.08,1.8a118.19,118.19,0,0,1-35.7-31.46c-3.2-4.19-2.89-7.13.23-11.32,1.38-1.86,3.32-3.5,4.07-5.58.93-2.59,1.95-5.91,1.09-8.24a240.5,240.5,0,0,0-9.69-22.06c-2.6-5.35-8.59-6.59-13.23-2.78a66.62,66.62,0,0,0-8.24,8.27,27.55,27.55,0,0,0-6.86,19.49,54.15,54.15,0,0,0,7.88,26.3c11.6,19.5,27.83,34.43,47,46.29C681.19,431.34,692.56,435.49,705.19,436Z" transform="translate(-487.23 -192.15)"/><path class="cls-2" d="M705.19,436c-12.63-.51-24-4.66-34.49-11.17-19.12-11.86-35.35-26.79-47-46.29a54.15,54.15,0,0,1-7.88-26.3,27.55,27.55,0,0,1,6.86-19.49,66.62,66.62,0,0,1,8.24-8.27c4.64-3.81,10.63-2.58,13.23,2.78a240.5,240.5,0,0,1,9.69,22.06c.85,2.33-.16,5.65-1.09,8.24-.75,2.08-2.69,3.72-4.07,5.58-3.12,4.18-3.42,7.13-.23,11.32a118.19,118.19,0,0,0,35.7,31.46c4.56,2.6,7.87,2.28,11.08-1.8,5.63-7.16,12-8.48,20.26-5,4.57,1.91,9.59,2.7,14.37,4.11,7.39,2.18,9.76,8.46,5.46,14.79-4.84,7.14-10.23,13.82-19.06,16.2C712.69,435.15,708.9,435.42,705.19,436Z" transform="translate(-487.23 -192.15)"/></svg>